<?xml version="1.0" encoding="UTF-8"?>
<svg version="1.1" xmlns="http://www.w3.org/2000/svg" width="787" height="451">
<path d="M0 0 C259.71 0 519.42 0 787 0 C787 148.83 787 297.66 787 451 C527.29 451 267.58 451 0 451 C0 302.17 0 153.34 0 0 Z " fill="#F3F6FE" transform="translate(0,0)"/>
<path d="M0 0 C1.03039925 -0.00327219 2.06079851 -0.00654439 3.12242198 -0.00991574 C4.8214837 -0.0076903 4.8214837 -0.0076903 6.55486989 -0.00541991 C7.76258731 -0.00777214 8.97030472 -0.01012437 10.21461964 -0.01254788 C13.58318686 -0.01807859 16.95170208 -0.01910882 20.32027024 -0.01827047 C23.97891214 -0.0184398 27.63754547 -0.02434399 31.29618311 -0.02951133 C38.55992979 -0.03884571 45.82367037 -0.04276078 53.08742229 -0.0450303 C61.78486836 -0.04799015 70.48230632 -0.05668621 79.17974814 -0.06544458 C100.20224482 -0.08629773 121.22474291 -0.09675971 142.24724751 -0.10557419 C152.18880212 -0.10977901 162.13035613 -0.11500118 172.07191023 -0.12025872 C206.09139556 -0.13814866 240.11088105 -0.15314593 274.13037038 -0.16057891 C276.26645266 -0.16105367 278.40253493 -0.16152955 280.53861721 -0.16200657 C282.12759806 -0.16236113 282.12759806 -0.16236113 283.74867954 -0.16272286 C289.11586572 -0.16392408 294.48305191 -0.16513952 299.85023808 -0.16636485 C300.91537815 -0.166605 301.98051822 -0.16684515 303.07793525 -0.16709258 C337.62559318 -0.17498851 372.17321681 -0.19842653 406.72085976 -0.23092079 C443.2321297 -0.26519939 479.74337956 -0.28492816 516.25466585 -0.28822315 C520.26077915 -0.2886407 524.26689244 -0.28912027 528.27300572 -0.28964633 C529.25944978 -0.28976952 530.24589384 -0.28989271 531.26223014 -0.29001964 C547.15315622 -0.29235399 563.04404252 -0.30802691 578.93495441 -0.32848817 C594.89981381 -0.34871896 610.86462532 -0.35423649 626.82949516 -0.34471754 C636.31935953 -0.33949205 645.80906474 -0.3454294 655.29890628 -0.36725221 C661.63464839 -0.38072345 667.9702805 -0.37971598 674.30602361 -0.36685025 C677.91816874 -0.35992906 681.53000879 -0.35936722 685.14212713 -0.37641034 C689.0316323 -0.39461305 692.92068658 -0.38193658 696.81021047 -0.36618346 C698.49522519 -0.38151677 698.49522519 -0.38151677 700.21428061 -0.39715984 C707.33631521 -0.33387149 713.1280788 0.58393565 718.4881814 5.57608638 C722.34411695 9.90350991 723.04972978 13.35365678 723.09535527 18.96986562 C723.10496282 19.9279865 723.11457036 20.88610738 723.12446904 21.87326223 C723.12871892 22.90247289 723.1329688 23.93168355 723.13734746 24.99208242 C723.14304753 26.05742711 723.14874761 27.12277181 723.15462041 28.22039968 C723.16406189 30.47395507 723.170601 32.72752422 723.17445683 34.98109609 C723.18415655 38.41794759 723.21518622 41.85419948 723.24672246 45.29091054 C723.25325349 47.48296429 723.25850357 49.67502231 723.26234746 51.86708242 C723.27469426 52.89022039 723.28704106 53.91335836 723.29976201 54.96750051 C723.27917074 61.60628534 722.78572815 66.94070349 718.18031621 72.08973867 C717.58348027 72.55637929 716.98664433 73.02301992 716.37172246 73.50380117 C715.7723084 73.98591054 715.17289433 74.46801992 714.55531621 74.96473867 C711.58934783 77.09451837 709.71270934 77.25436556 706.10286719 77.25645167 C705.07383946 77.25946764 704.04481173 77.2624836 702.98460135 77.26559097 C701.84314497 77.26382149 700.7016886 77.26205202 699.52564263 77.26022893 C698.31655656 77.26228157 697.10747049 77.2643342 695.86174545 77.26644903 C692.48002161 77.27115698 689.09835054 77.27133892 685.71662729 77.26967144 C682.04721657 77.26894301 678.3778131 77.273957 674.70840544 77.27824646 C667.41902906 77.28584338 660.12966 77.28802038 652.84028008 77.28857552 C644.11381974 77.2894875 635.3873662 77.2961501 626.66090878 77.30292234 C605.56598439 77.31900202 584.47106072 77.32488785 563.37613131 77.32967109 C553.40149451 77.33200507 543.42685828 77.3356075 533.45222193 77.33936647 C499.32422273 77.35220371 465.19622385 77.36292276 431.06822228 77.36636907 C428.92480968 77.3665907 426.78139707 77.36681249 424.63798447 77.36703442 C422.48931947 77.36725506 420.34065448 77.36747554 418.19198948 77.36769587 C413.88121362 77.36813843 409.57043777 77.36858554 405.25966191 77.36903554 C404.19083563 77.36914493 403.12200935 77.36925432 402.02079439 77.36936703 C367.35578376 77.37299852 332.69079402 77.38892115 298.02579139 77.41222591 C261.39689216 77.43680604 224.76800488 77.45054106 188.13909715 77.45173699 C184.12033244 77.45190845 180.10156772 77.45212388 176.08280301 77.45237142 C174.59844684 77.45245507 174.59844684 77.45245507 173.08410367 77.45254041 C157.1389483 77.45369246 141.19381433 77.46472746 125.2486662 77.47925847 C109.22981491 77.49360452 93.21099114 77.49687119 77.19213519 77.4888185 C67.66877127 77.48435326 58.14549599 77.48825843 48.62214366 77.504057 C42.26527436 77.51377882 35.90846741 77.51265563 29.55159873 77.50262077 C25.92657158 77.49720843 22.3017151 77.49658353 18.67670182 77.50912949 C14.77505523 77.52252055 10.87366347 77.51280241 6.97200799 77.50073797 C5.84225744 77.50833316 4.7125069 77.51592835 3.54852149 77.5237537 C-3.07206701 77.47927021 -8.49891264 77.11615255 -13.77280879 72.69911367 C-17.37583371 67.98844504 -19.30770233 64.12968859 -19.34043574 58.17421132 C-19.34996776 57.21616597 -19.35949977 56.25812063 -19.36932063 55.2710436 C-19.36840922 54.24699422 -19.36749782 53.22294484 -19.36655879 52.16786367 C-19.37084392 51.10393392 -19.37512904 50.04000417 -19.37954402 48.94383413 C-19.38527938 46.69625224 -19.38579344 44.4486518 -19.38145137 42.20106679 C-19.37829522 38.77300799 -19.40174808 35.34581562 -19.42710567 31.91786367 C-19.4293792 29.73036475 -19.4300819 27.54286352 -19.42905879 25.35536367 C-19.44287341 23.82536229 -19.44287341 23.82536229 -19.45696712 22.2644518 C-19.41414471 15.634629 -18.85957736 10.38283251 -14.38218379 5.16786367 C-13.80339473 4.70122304 -13.22460567 4.23458242 -12.62827754 3.75380117 C-11.76396113 3.0306371 -11.76396113 3.0306371 -10.88218379 2.29286367 C-7.43939928 0.08652005 -4.01089185 0.00333574 0 0 Z " fill="#DAE9FD" transform="translate(31.06577754020691,9.871198832988739)"/>
<path d="M0 0 C0.80546212 -0.00438225 1.61092423 -0.00876451 2.44079429 -0.01327956 C5.14907456 -0.02667078 7.85732228 -0.03284716 10.56562805 -0.03897095 C12.50380602 -0.04687168 14.44198252 -0.05514061 16.38015747 -0.06375122 C22.75357152 -0.08997532 29.12699214 -0.10527954 35.5004425 -0.11953735 C37.69408993 -0.12489693 39.88773732 -0.13027444 42.08138466 -0.13566971 C51.20628509 -0.15729925 60.33118374 -0.17603599 69.45610332 -0.1872921 C82.53485859 -0.20353133 95.61331677 -0.23670785 108.69196004 -0.29369295 C117.88697397 -0.33239111 127.08190844 -0.35192468 136.27700168 -0.35721266 C141.76923157 -0.36086634 147.26114461 -0.37288969 152.75328636 -0.4053154 C157.92192304 -0.43539349 163.09005111 -0.44170862 168.25875664 -0.42993164 C170.15339809 -0.42971088 172.04806312 -0.43801764 173.94262314 -0.45558548 C176.534868 -0.47830989 179.12527363 -0.46996784 181.7175293 -0.45410156 C182.8351173 -0.47492469 182.8351173 -0.47492469 183.97528285 -0.49616849 C189.76540543 -0.40919258 193.65333689 1.59302262 198.17622375 5.15390015 C202.84880579 10.21415761 202.74446796 14.83487487 202.67793274 21.37850952 C202.68603722 22.90155449 202.68603722 22.90155449 202.69430542 24.45536804 C202.70678638 27.80309426 202.69030515 31.14995945 202.6723175 34.49765015 C202.67247251 36.82882736 202.67396168 39.16000484 202.67672729 41.49118042 C202.67811101 46.37349865 202.66555732 51.25552303 202.64277649 56.13778687 C202.61439235 62.39237024 202.61712974 68.6464654 202.6298666 74.9010849 C202.6368254 79.71381796 202.62903211 84.52643842 202.61660957 89.3391571 C202.61209706 91.6452135 202.61175652 93.95128199 202.61567497 96.25733948 C202.61858907 99.48157484 202.60206983 102.70514013 202.58027649 105.92929077 C202.58702896 107.3555352 202.58702896 107.3555352 202.59391785 108.81059265 C202.53561681 114.00851406 202.09523367 117.6660384 199.17622375 122.15390015 C193.68224901 127.22526145 189.609526 128.45165792 182.22546387 128.42132568 C181.01493071 128.42812235 181.01493071 128.42812235 179.77994233 128.43505633 C177.07237853 128.44772911 174.36501513 128.4460781 171.65742493 128.44442749 C169.7174758 128.45041098 167.77752905 128.45721611 165.83758545 128.46478271 C160.56478049 128.48246903 155.29204042 128.48713923 150.01920867 128.48841429 C145.61814446 128.49031255 141.21709539 128.49766932 136.816037 128.50475848 C126.43210383 128.52105033 116.04820534 128.52592673 105.66426086 128.52450562 C94.95218641 128.52330422 84.24031344 128.54440387 73.52828997 128.57599294 C64.33241267 128.60214481 55.13660121 128.61287335 45.940687 128.6115948 C40.44800794 128.61108481 34.95550786 128.61678833 29.46286583 128.6379509 C24.29589458 128.65731462 19.1292734 128.6574704 13.96228981 128.64291763 C12.06724156 128.64082607 10.1721715 128.64555109 8.27716064 128.65763855 C5.68700755 128.67308817 3.09806189 128.66378518 0.50793457 128.64837646 C-0.23935482 128.65866359 -0.98664422 128.66895072 -1.75657874 128.67954957 C-7.3052092 128.6067668 -10.34945153 127.19989099 -14.82377625 124.15390015 C-18.48941091 120.19887327 -19.94094473 117.20929774 -19.97094727 111.8473053 C-19.97810257 110.96836609 -19.98525787 110.08942688 -19.99263 109.18385315 C-19.99531891 108.2222377 -19.99800781 107.26062225 -20.0007782 106.26986694 C-20.0073494 105.25494171 -20.01392059 104.24001648 -20.02069092 103.19433594 C-20.0404262 99.8305962 -20.05208639 96.46690108 -20.0620575 93.1031189 C-20.06613302 91.95493998 -20.07020855 90.80676105 -20.07440758 89.62378883 C-20.09526818 83.54797164 -20.1095706 77.47217705 -20.11894226 71.39633179 C-20.13001335 65.11811218 -20.16442173 58.84024635 -20.20411396 52.56215191 C-20.23024472 47.73658077 -20.23863092 42.91109443 -20.24222374 38.08545876 C-20.24709795 35.77100037 -20.25873556 33.45654597 -20.27726173 31.1421566 C-20.30157959 27.90319036 -20.30070136 24.66514631 -20.29374695 21.42611694 C-20.30655701 20.47057419 -20.31936707 19.51503143 -20.33256531 18.53053284 C-20.28841669 12.88847366 -19.6213914 9.61404404 -15.82377625 5.15390015 C-10.6596139 0.49355852 -6.74378151 0.00443892 0 0 Z " fill="#E8FEF9" transform="translate(551.8237762451172,256.8460998535156)"/>
<path d="M0 0 C1.04612164 -0.00551949 2.09224328 -0.01103897 3.17006558 -0.01672572 C4.90323235 -0.01055976 4.90323235 -0.01055976 6.67141259 -0.00426924 C8.51299686 -0.00952835 8.51299686 -0.00952835 10.39178485 -0.01489371 C13.82115726 -0.02263232 17.25031694 -0.02133805 20.67968076 -0.01633817 C24.40239812 -0.0130834 28.12509232 -0.02134414 31.8478024 -0.02815652 C38.37950866 -0.03848577 44.91118526 -0.04129526 51.44289887 -0.03924429 C61.15565459 -0.03620188 70.86837734 -0.04450135 80.58112666 -0.05499355 C98.93489397 -0.07436543 117.28865015 -0.07996295 135.64242648 -0.08110766 C149.81231982 -0.08202566 163.98220877 -0.08613669 178.15210068 -0.09250891 C182.22635507 -0.09430391 186.30060947 -0.09608354 190.37486386 -0.09785867 C191.387646 -0.09830076 192.40042814 -0.09874286 193.44390064 -0.09919835 C221.94303161 -0.11151184 250.44216105 -0.11939896 278.94129479 -0.1185118 C280.0164272 -0.11848064 281.09155961 -0.11844948 282.19927178 -0.11841738 C287.64887427 -0.11825116 293.09847675 -0.11805307 298.54807924 -0.11784796 C300.17163602 -0.11778813 300.17163602 -0.11778813 301.82799194 -0.11772708 C304.01681124 -0.11764621 306.20563055 -0.11756261 308.39444985 -0.1174763 C342.4579697 -0.11625046 376.52144974 -0.13126788 410.5849582 -0.15862143 C448.82719904 -0.18931768 487.06941373 -0.20655542 525.31166768 -0.20469499 C529.38655078 -0.20454572 533.46143389 -0.20444831 537.53631699 -0.20438635 C538.53970762 -0.20436304 539.54309826 -0.20433974 540.57689467 -0.20431572 C556.75020453 -0.20425408 572.92347996 -0.21704606 589.09677957 -0.23425088 C605.34064385 -0.25117383 621.58445753 -0.25320745 637.82832573 -0.24003224 C647.48766727 -0.2326208 657.14685548 -0.2363662 666.8061809 -0.25591692 C673.25110348 -0.26786323 679.6959143 -0.26538586 686.14083163 -0.25097592 C689.8178079 -0.24316736 693.49448619 -0.24179069 697.17144214 -0.25789063 C701.1254276 -0.27505275 705.07895893 -0.26153261 709.03295434 -0.24477828 C710.18371651 -0.25471464 711.33447869 -0.26465099 712.52011245 -0.27488846 C720.22341383 -0.20525486 720.22341383 -0.20525486 724.14256024 2.17473578 C727.59178432 6.08023129 728.43806446 8.87218801 728.2983371 14.22174966 C727.76446324 17.60729124 726.17076362 19.69480414 723.9780246 22.25299966 C720.87603367 24.21021404 718.48154285 24.50364805 714.84582543 24.50599933 C713.80057956 24.51151881 712.75533368 24.5170383 711.67841369 24.52272505 C710.52909073 24.51861441 709.37976777 24.51450377 708.19561684 24.51026857 C706.35781632 24.51552768 706.35781632 24.51552768 704.48288852 24.52089304 C701.0652455 24.52862338 697.64781633 24.52734141 694.23018203 24.52233749 C690.51842683 24.51907951 686.80669476 24.52734616 683.09494686 24.53415585 C676.58400843 24.54447986 670.07309974 24.54729549 663.56215394 24.54524362 C653.88024214 24.54219987 644.19836339 24.55050367 634.51645801 24.56099287 C616.22061839 24.58035979 597.92478996 24.58596209 579.62894131 24.58710699 C565.50341687 24.58802516 551.37789683 24.59213704 537.25237381 24.59850824 C533.19019358 24.60030325 529.12801334 24.60208288 525.06583309 24.60385799 C524.05603979 24.60430009 523.04624648 24.60474219 522.00585338 24.60519768 C493.59281536 24.61751028 465.17977886 24.62539838 436.76673806 24.62451112 C435.6949626 24.62447997 434.62318715 24.62444881 433.51893365 24.62441671 C428.08640306 24.62425048 422.65387246 24.6240524 417.22134186 24.62384729 C416.14237009 24.6238074 415.06339831 24.62376751 413.95173042 24.62372641 C411.7697859 24.62364554 409.58784137 24.62356194 407.40589685 24.62347563 C373.44961633 24.6222498 339.49337573 24.6372674 305.53710663 24.66462076 C267.41131132 24.69532 229.28554223 24.71255457 191.15973377 24.71069431 C187.09692482 24.71054504 183.03411587 24.71044764 178.97130692 24.71038568 C177.97089651 24.71036237 176.9704861 24.71033906 175.93976023 24.71031505 C159.81784358 24.71025342 143.69596151 24.72304278 127.57405515 24.74025021 C111.3807049 24.75717683 95.18740541 24.75920387 78.99405123 24.74603157 C69.36601963 24.73862264 59.73814189 24.7423581 50.11012648 24.76191625 C43.68483333 24.77386894 37.25965222 24.77137798 30.83436432 24.75697525 C27.16943705 24.74917217 23.50480863 24.74777457 19.83990182 24.76388995 C15.89715799 24.78107587 11.95486851 24.76751862 8.01211464 24.7507776 C6.2951537 24.76568214 6.2951537 24.76568214 4.54350668 24.78088778 C-1.61633734 24.72515976 -5.34993109 24.41347285 -10.0219754 20.25299966 C-12.37013417 17.26443395 -12.43714076 14.03404828 -12.34619415 10.28424966 C-11.81199944 6.93748763 -10.15321314 4.81048495 -8.0219754 2.25299966 C-4.73992747 0.06496771 -3.80361308 0.00245204 0 0 Z " fill="#DFE6ED" transform="translate(25.02197539806366,398.74700033664703)"/>
<path d="M0 0 C1.03039925 -0.00327219 2.06079851 -0.00654439 3.12242198 -0.00991574 C4.8214837 -0.0076903 4.8214837 -0.0076903 6.55486989 -0.00541991 C7.76258731 -0.00777214 8.97030472 -0.01012437 10.21461964 -0.01254788 C13.58318686 -0.01807859 16.95170208 -0.01910882 20.32027024 -0.01827047 C23.97891214 -0.0184398 27.63754547 -0.02434399 31.29618311 -0.02951133 C38.55992979 -0.03884571 45.82367037 -0.04276078 53.08742229 -0.0450303 C61.78486836 -0.04799015 70.48230632 -0.05668621 79.17974814 -0.06544458 C100.20224482 -0.08629773 121.22474291 -0.09675971 142.24724751 -0.10557419 C152.18880212 -0.10977901 162.13035613 -0.11500118 172.07191023 -0.12025872 C206.09139556 -0.13814866 240.11088105 -0.15314593 274.13037038 -0.16057891 C276.26645266 -0.16105367 278.40253493 -0.16152955 280.53861721 -0.16200657 C282.12759806 -0.16236113 282.12759806 -0.16236113 283.74867954 -0.16272286 C289.11586572 -0.16392408 294.48305191 -0.16513952 299.85023808 -0.16636485 C300.91537815 -0.166605 301.98051822 -0.16684515 303.07793525 -0.16709258 C337.62559318 -0.17498851 372.17321681 -0.19842653 406.72085976 -0.23092079 C443.2321297 -0.26519939 479.74337956 -0.28492816 516.25466585 -0.28822315 C520.26077915 -0.2886407 524.26689244 -0.28912027 528.27300572 -0.28964633 C529.25944978 -0.28976952 530.24589384 -0.28989271 531.26223014 -0.29001964 C547.15315622 -0.29235399 563.04404252 -0.30802691 578.93495441 -0.32848817 C594.89981381 -0.34871896 610.86462532 -0.35423649 626.82949516 -0.34471754 C636.31935953 -0.33949205 645.80906474 -0.3454294 655.29890628 -0.36725221 C661.63464839 -0.38072345 667.9702805 -0.37971598 674.30602361 -0.36685025 C677.91816874 -0.35992906 681.53000879 -0.35936722 685.14212713 -0.37641034 C689.0316323 -0.39461305 692.92068658 -0.38193658 696.81021047 -0.36618346 C698.49522519 -0.38151677 698.49522519 -0.38151677 700.21428061 -0.39715984 C707.33631521 -0.33387149 713.1280788 0.58393565 718.4881814 5.57608638 C722.34411695 9.90350991 723.04972978 13.35365678 723.09535527 18.96986562 C723.10496282 19.9279865 723.11457036 20.88610738 723.12446904 21.87326223 C723.12871892 22.90247289 723.1329688 23.93168355 723.13734746 24.99208242 C723.14304753 26.05742711 723.14874761 27.12277181 723.15462041 28.22039968 C723.16406189 30.47395507 723.170601 32.72752422 723.17445683 34.98109609 C723.18415655 38.41794759 723.21518622 41.85419948 723.24672246 45.29091054 C723.25325349 47.48296429 723.25850357 49.67502231 723.26234746 51.86708242 C723.27469426 52.89022039 723.28704106 53.91335836 723.29976201 54.96750051 C723.27917074 61.60628534 722.78572815 66.94070349 718.18031621 72.08973867 C717.58348027 72.55637929 716.98664433 73.02301992 716.37172246 73.50380117 C715.7723084 73.98591054 715.17289433 74.46801992 714.55531621 74.96473867 C711.58934783 77.09451837 709.71270934 77.25436556 706.10286719 77.25645167 C705.07383946 77.25946764 704.04481173 77.2624836 702.98460135 77.26559097 C701.84314497 77.26382149 700.7016886 77.26205202 699.52564263 77.26022893 C698.31655656 77.26228157 697.10747049 77.2643342 695.86174545 77.26644903 C692.48002161 77.27115698 689.09835054 77.27133892 685.71662729 77.26967144 C682.04721657 77.26894301 678.3778131 77.273957 674.70840544 77.27824646 C667.41902906 77.28584338 660.12966 77.28802038 652.84028008 77.28857552 C644.11381974 77.2894875 635.3873662 77.2961501 626.66090878 77.30292234 C605.56598439 77.31900202 584.47106072 77.32488785 563.37613131 77.32967109 C553.40149451 77.33200507 543.42685828 77.3356075 533.45222193 77.33936647 C499.32422273 77.35220371 465.19622385 77.36292276 431.06822228 77.36636907 C428.92480968 77.3665907 426.78139707 77.36681249 424.63798447 77.36703442 C422.48931947 77.36725506 420.34065448 77.36747554 418.19198948 77.36769587 C413.88121362 77.36813843 409.57043777 77.36858554 405.25966191 77.36903554 C404.19083563 77.36914493 403.12200935 77.36925432 402.02079439 77.36936703 C367.35578376 77.37299852 332.69079402 77.38892115 298.02579139 77.41222591 C261.39689216 77.43680604 224.76800488 77.45054106 188.13909715 77.45173699 C184.12033244 77.45190845 180.10156772 77.45212388 176.08280301 77.45237142 C174.59844684 77.45245507 174.59844684 77.45245507 173.08410367 77.45254041 C157.1389483 77.45369246 141.19381433 77.46472746 125.2486662 77.47925847 C109.22981491 77.49360452 93.21099114 77.49687119 77.19213519 77.4888185 C67.66877127 77.48435326 58.14549599 77.48825843 48.62214366 77.504057 C42.26527436 77.51377882 35.90846741 77.51265563 29.55159873 77.50262077 C25.92657158 77.49720843 22.3017151 77.49658353 18.67670182 77.50912949 C14.77505523 77.52252055 10.87366347 77.51280241 6.97200799 77.50073797 C5.84225744 77.50833316 4.7125069 77.51592835 3.54852149 77.5237537 C-3.07206701 77.47927021 -8.49891264 77.11615255 -13.77280879 72.69911367 C-17.37583371 67.98844504 -19.30770233 64.12968859 -19.34043574 58.17421132 C-19.34996776 57.21616597 -19.35949977 56.25812063 -19.36932063 55.2710436 C-19.36840922 54.24699422 -19.36749782 53.22294484 -19.36655879 52.16786367 C-19.37084392 51.10393392 -19.37512904 50.04000417 -19.37954402 48.94383413 C-19.38527938 46.69625224 -19.38579344 44.4486518 -19.38145137 42.20106679 C-19.37829522 38.77300799 -19.40174808 35.34581562 -19.42710567 31.91786367 C-19.4293792 29.73036475 -19.4300819 27.54286352 -19.42905879 25.35536367 C-19.44287341 23.82536229 -19.44287341 23.82536229 -19.45696712 22.2644518 C-19.41414471 15.634629 -18.85957736 10.38283251 -14.38218379 5.16786367 C-13.80339473 4.70122304 -13.22460567 4.23458242 -12.62827754 3.75380117 C-11.76396113 3.0306371 -11.76396113 3.0306371 -10.88218379 2.29286367 C-7.43939928 0.08652005 -4.01089185 0.00333574 0 0 Z M-13.37827754 8.62880117 C-14.11497676 9.51051992 -14.11497676 9.51051992 -14.86655879 10.41005117 C-16.9530007 13.40039137 -17.1963631 16.04927305 -17.22691035 19.5809496 C-17.2365179 20.47908376 -17.24612544 21.37721792 -17.25602412 22.30256826 C-17.260274 23.27131887 -17.26452388 24.24006948 -17.26890254 25.23817617 C-17.27460261 26.23834768 -17.28030269 27.23851918 -17.28617549 28.26899892 C-17.29562498 30.38729464 -17.30215927 32.50560506 -17.30601192 34.62391835 C-17.31569825 37.85237239 -17.34671453 41.08018457 -17.37827754 44.30848867 C-17.38480976 46.36838073 -17.39005937 48.42827733 -17.39390254 50.48817617 C-17.40624934 51.44882985 -17.41859614 52.40948354 -17.43131709 53.39924794 C-17.4100078 59.86597335 -16.79323155 65.07939824 -12.31187129 70.08973867 C-11.71503535 70.55637929 -11.11819942 71.02301992 -10.50327754 71.50380117 C-9.90386348 71.98591054 -9.30444942 72.46801992 -8.68687129 72.96473867 C-5.72883072 75.08882563 -3.85981684 75.25435968 -0.26007038 75.25645167 C1.2748707 75.26097562 1.2748707 75.26097562 2.8408207 75.26559097 C4.54337919 75.26293676 4.54337919 75.26293676 6.2803328 75.26022893 C8.08383167 75.26330788 8.08383167 75.26330788 9.92376485 75.26644903 C13.28654805 75.27115692 16.64927819 75.27133893 20.0120608 75.26967144 C23.66093946 75.268943 27.30981082 75.27395702 30.95868641 75.27824646 C38.20725286 75.28584334 45.45581194 75.28802038 52.70438195 75.28857552 C61.38199771 75.2894875 70.05960661 75.29615012 78.73721943 75.30292234 C99.71407075 75.31900197 120.69092136 75.32488785 141.66777774 75.32967109 C151.58660564 75.33200507 161.50543297 75.3356075 171.42426042 75.33936647 C205.36137857 75.35220371 239.2984964 75.36292276 273.23561692 75.36636907 C275.36703918 75.3665907 277.49846144 75.36681249 279.6298837 75.36703442 C281.7665287 75.36725506 283.9031737 75.36747554 286.0398187 75.36769587 C290.32647868 75.36813843 294.61313866 75.36858554 298.89979863 75.36903554 C299.96264554 75.36914493 301.02549245 75.36925432 302.12054685 75.36936703 C336.5915503 75.37299851 371.06253273 75.38892111 405.53352813 75.41222591 C441.95751311 75.43680614 478.38148607 75.45054107 514.80547959 75.45173699 C518.80177637 75.45190845 522.79807315 75.45212388 526.79436994 75.45237142 C528.27042721 75.45245507 528.27042721 75.45245507 529.77630382 75.45254041 C545.63219526 75.45369245 561.48806518 75.46472738 577.34394934 75.47925847 C593.27318408 75.49360465 609.20239114 75.49687112 625.13163056 75.4888185 C634.60167183 75.48435332 644.07162397 75.4882582 653.54165357 75.504057 C659.86297949 75.51377902 666.1842427 75.51265544 672.50556799 75.50262077 C676.11029465 75.49720858 679.71484969 75.49658305 683.3195624 75.50912949 C687.19942617 75.52252128 691.0790337 75.51280204 694.95890641 75.50073797 C696.64390616 75.51213076 696.64390616 75.51213076 698.3629463 75.5237537 C705.16597261 75.4777914 710.54006871 75.04290528 715.89515996 70.44520742 C716.36180058 69.86641835 716.82844121 69.28762929 717.30922246 68.69130117 C717.79133183 68.11509023 718.27344121 67.53887929 718.77015996 66.94520742 C720.8517841 63.69703553 721.06171334 60.44591887 721.09535527 56.65492421 C721.10976659 55.33786741 721.10976659 55.33786741 721.12446904 53.99420339 C721.12871892 53.05248784 721.1329688 52.1107723 721.13734746 51.14051992 C721.14304753 50.1639594 721.14874761 49.18739888 721.15462041 48.18124563 C721.16405897 46.11600494 721.17059984 44.05074927 721.17445683 41.98549062 C721.18415458 38.83832974 721.21518586 35.69182428 721.24672246 32.54481679 C721.25325381 30.53505503 721.25850376 28.52528862 721.26234746 26.51551992 C721.27469426 25.57987706 721.28704106 24.64423421 721.29976201 23.68023854 C721.27811474 17.2786394 720.56904769 12.19766953 716.25062871 7.16786367 C715.67183965 6.70122304 715.09305058 6.23458242 714.49672246 5.75380117 C713.92051152 5.27169179 713.34430058 4.78958242 712.75062871 4.29286367 C709.31273555 2.08965472 705.89070048 2.00348186 701.88537967 2.00115067 C700.85876822 1.9981347 699.83215677 1.99511873 698.77443588 1.99201137 C697.64596941 1.99378084 696.51750294 1.99555031 695.35484052 1.9973734 C694.15158903 1.99532077 692.94833754 1.99326813 691.70862389 1.9911533 C688.35259446 1.98645559 684.99661837 1.98626067 681.64058958 1.98793089 C677.99557035 1.98866078 674.35055837 1.9836419 670.70554221 1.97935587 C663.46894205 1.97176763 656.23234928 1.96958239 648.99574556 1.96902682 C640.33088883 1.968114 631.66603895 1.96144898 623.00118517 1.95467999 C602.05832104 1.93861012 581.11545764 1.93271588 560.17258846 1.92793124 C550.26956444 1.92559659 540.36654101 1.92199412 530.46351745 1.91823587 C496.57831381 1.90540037 462.6931105 1.89468048 428.80790448 1.89123327 C426.68030676 1.89101163 424.55270904 1.89078985 422.42511132 1.89056791 C420.29232054 1.89034727 418.15952977 1.89012679 416.026739 1.88990647 C411.74785328 1.88946391 407.46896756 1.88901679 403.19008183 1.88856679 C401.59870625 1.88840271 401.59870625 1.88840271 399.97518167 1.8882353 C365.55905633 1.88460302 331.14295204 1.86867648 296.72683476 1.84537643 C260.35738975 1.82079887 223.98795677 1.80706142 187.61850321 1.80586535 C183.62871504 1.80569389 179.63892686 1.80547846 175.64913869 1.80523092 C174.66670924 1.80517515 173.68427978 1.80511938 172.67207974 1.80506192 C156.84027638 1.80390976 141.00849456 1.79287387 125.17669847 1.77834386 C109.2746101 1.76400129 93.37254944 1.7607292 77.47045638 1.76878384 C68.01574705 1.77325047 58.56112697 1.76933832 49.10642931 1.75354533 C42.79667049 1.74382852 36.48697452 1.74494185 30.17721633 1.75498156 C26.57831124 1.7603975 22.97957811 1.76100743 19.38068695 1.74847284 C15.50880404 1.73509948 11.63717851 1.74479076 7.76528668 1.75686437 C6.64150255 1.74926918 5.51771841 1.74167398 4.35988021 1.73384863 C-3.00999053 1.78384301 -8.49158137 2.62251153 -13.37827754 8.62880117 Z " fill="#93C5FD" transform="translate(31.06577754020691,9.871198832988739)"/>
<path d="M0 0 C0.78115807 -0.00205263 1.56231613 -0.00410527 2.36714566 -0.0062201 C5.00042838 -0.01190156 7.633659 -0.01043144 10.26694679 -0.00901413 C12.16765644 -0.0115971 14.06836554 -0.01461007 15.96907389 -0.01801753 C21.20458105 -0.02609862 26.44007452 -0.02787772 31.67558718 -0.028615 C37.31713321 -0.03046359 42.95867209 -0.03800987 48.600214 -0.04475021 C60.94089456 -0.05834122 73.28157187 -0.06435925 85.62225866 -0.06876087 C93.32375438 -0.0715216 101.02524883 -0.0757586 108.7267437 -0.08026505 C130.03896911 -0.09245796 151.35119299 -0.10279311 172.66342163 -0.10614014 C174.04162257 -0.10636177 175.41982351 -0.10658355 176.79802445 -0.10680549 C178.17956573 -0.10702613 179.56110701 -0.10724661 180.94264829 -0.10746694 C183.71429149 -0.10790949 186.4859347 -0.10835661 189.2575779 -0.10880661 C190.28838747 -0.1089707 190.28838747 -0.1089707 191.34002148 -0.1091381 C213.63069973 -0.11277002 235.9213455 -0.12869562 258.21201131 -0.15199697 C281.77431728 -0.17658265 305.3365981 -0.19030563 328.89891875 -0.19150805 C341.74513758 -0.19242593 354.59131385 -0.19820671 367.43752098 -0.21632767 C378.37378931 -0.23169986 389.31000192 -0.23686613 400.24627899 -0.22858956 C405.82872663 -0.22467304 411.41106199 -0.22566149 416.99349594 -0.23964691 C422.10088347 -0.25232556 427.20807362 -0.25124168 432.31546064 -0.2390562 C434.1660431 -0.23708871 436.01663927 -0.2402258 437.86720245 -0.24890056 C440.37778962 -0.25992695 442.88767207 -0.25255213 445.39823914 -0.24050903 C446.4822858 -0.25190182 446.4822858 -0.25190182 447.5882324 -0.26352477 C453.67017325 -0.2003073 457.54470155 1.51677411 462.01246071 5.56892776 C466.47920265 10.51856073 468.44509566 13.72178573 468.45638847 20.44873238 C468.46022962 21.30991169 468.46407076 22.171091 468.46802831 23.05836666 C468.46716182 23.99979585 468.46629534 24.94122505 468.4654026 25.9111824 C468.46985929 27.41678968 468.46985929 27.41678968 468.474406 28.95281327 C468.48309789 32.32599914 468.48460166 35.69914954 468.48609352 39.07234573 C468.49072128 41.48681591 468.49574588 43.90128535 468.50113869 46.31575394 C468.51426721 52.8818254 468.52074499 59.44788947 468.52514935 66.01397085 C468.52791292 70.11400831 468.53215045 74.21404342 468.53665352 78.31407928 C468.54884403 89.66682856 468.55914436 101.01957594 468.56252861 112.37233162 C468.56274818 113.09871413 468.56296774 113.82509664 468.56319396 114.57349075 C468.56341224 115.3016028 468.56363052 116.02971484 468.56385541 116.77989089 C468.56429887 118.25530553 468.56474544 119.73072016 468.56519508 121.2061348 C468.56541651 121.93799016 468.56563794 122.66984553 468.56586608 123.42387833 C468.56981511 135.28567505 468.58727329 147.14741039 468.61055461 159.00918339 C468.63426644 171.1886151 468.64673035 183.368016 468.64789653 195.54747117 C468.64881329 202.38538529 468.65456599 209.22321937 468.67271614 216.06111145 C468.68972377 222.49117231 468.69137103 228.92112171 468.68257713 235.3512001 C468.68180474 237.7126964 468.68617599 240.07420074 468.69603539 242.43567657 C468.70869549 245.65653559 468.70291013 248.87685099 468.69245338 252.09770584 C468.70453799 253.50315747 468.70453799 253.50315747 468.71686673 254.93700206 C468.66031341 262.37230712 466.60010071 267.71371641 461.32496071 273.13142776 C456.10037423 276.5014716 451.38150328 277.71577908 445.16052341 277.63199902 C443.98231264 277.64027027 443.98231264 277.64027027 442.78029963 277.64870861 C440.15610477 277.66227182 437.53286237 277.64742412 434.90868568 277.63263321 C433.0052329 277.63652721 431.10178302 277.64216845 429.19834 277.64940411 C423.97369994 277.66416227 418.74936117 277.65397526 413.5247308 277.63966739 C407.88799628 277.6285637 402.25130423 277.64049819 396.61457253 277.64950943 C385.57483267 277.66344769 374.53520714 277.65588146 363.49547272 277.64083385 C350.64251715 277.62398096 337.78959012 277.62718308 324.93662692 277.63092793 C301.31335358 277.63698519 277.69015412 277.62119997 254.06689893 277.59574029 C232.50259113 277.57262276 210.93835038 277.56723822 189.37403297 277.57747269 C183.85141916 277.58007471 178.32880535 277.58265972 172.80619144 277.58507061 C172.12628713 277.58536806 171.44638282 277.5856655 170.74587534 277.58597197 C152.72471707 277.59358677 134.70356634 277.58711571 116.68240982 277.57637459 C114.09943935 277.57484873 111.51646887 277.57332838 108.93349838 277.57181358 C107.66258844 277.57105577 106.39167849 277.57029795 105.08225612 277.56951718 C96.12012211 277.56477175 87.15800323 277.5666276 78.19586945 277.57087898 C67.27691487 277.57580217 56.35802969 277.5698367 45.43909102 277.54998469 C39.86662664 277.54010333 34.29426799 277.53501675 28.72179794 277.5428772 C23.62252157 277.54992309 18.52345874 277.54315484 13.42421056 277.52527357 C11.57777345 277.52122202 9.73131696 277.52224074 7.88488703 277.52879243 C5.3775209 277.5369291 2.8708767 277.52664705 0.36355686 277.5117445 C-0.35537051 277.51848215 -1.07429788 277.5252198 -1.81501094 277.53216162 C-8.14111357 277.45931592 -12.65870822 275.91863031 -17.42503929 271.69392776 C-21.37943917 267.19030568 -23.79613994 264.09031173 -23.80646706 257.93996429 C-23.8103082 257.08139273 -23.81414935 256.22282116 -23.81810689 255.33823228 C-23.81724041 254.39457236 -23.81637393 253.45091244 -23.81548119 252.47865677 C-23.81845231 251.47647857 -23.82142343 250.47430038 -23.82448459 249.44175315 C-23.83318878 246.06779519 -23.83468129 242.69387264 -23.8361721 239.31990433 C-23.84079907 236.90720417 -23.84582356 234.49450475 -23.85121727 232.08180618 C-23.86435518 225.51560837 -23.87082556 218.94941793 -23.87522793 212.38321018 C-23.87799043 208.28300281 -23.88222782 204.18279779 -23.8867321 200.08259201 C-23.89892532 188.72988534 -23.90922425 177.37718055 -23.91260719 166.02446747 C-23.91282676 165.2978014 -23.91304633 164.57113533 -23.91327254 163.82244907 C-23.91349082 163.09404438 -23.9137091 162.36563969 -23.91393399 161.61516213 C-23.91437746 160.1391387 -23.91482402 158.66311526 -23.91527367 157.18709183 C-23.9154951 156.45493327 -23.91571653 155.72277471 -23.91594467 154.96842954 C-23.91989191 143.10724477 -23.93734342 131.24612147 -23.96063319 119.38496044 C-23.98435253 107.20668557 -23.99680932 95.02844154 -23.99797511 82.85014319 C-23.99889159 76.01274122 -24.00463698 69.17541931 -24.02279472 62.3380394 C-24.03981487 55.90634714 -24.04144394 49.4747663 -24.03265572 43.04305649 C-24.03188389 40.68198108 -24.03624712 38.3208976 -24.04611397 35.95984268 C-24.05879226 32.73709096 -24.05297867 29.51488111 -24.04253197 26.29213333 C-24.05058837 25.3573963 -24.05864478 24.42265927 -24.06694531 23.45959687 C-24.01445918 16.53825173 -22.96201191 11.71160201 -18.23753929 6.38142776 C-12.01161058 0.91475865 -8.26959334 -0.02011714 0 0 Z M-17.55003929 9.06892776 C-21.70387676 15.05534058 -21.96632346 19.76539604 -21.94246483 26.85939407 C-21.94699594 27.84553578 -21.95152705 28.83167748 -21.95619547 29.84770226 C-21.96886616 33.15554107 -21.96721736 36.46321579 -21.96556664 39.7710762 C-21.97155026 42.14141934 -21.97835542 44.51176053 -21.98592186 46.88209915 C-22.00176953 52.65499698 -22.00803106 58.42784494 -22.00914662 64.20076343 C-22.01009761 68.89498584 -22.01421049 73.58919479 -22.02054787 78.28341293 C-22.03815909 91.59996993 -22.04738709 104.91649471 -22.04588692 118.23306343 C-22.04580701 118.95072483 -22.04572709 119.66838623 -22.04564476 120.40779495 C-22.045563 121.12633543 -22.04548124 121.8448759 -22.045397 122.58519033 C-22.04458444 134.22506216 -22.06371483 145.86480449 -22.09192149 157.50463888 C-22.12067256 169.46377109 -22.13446052 181.4228402 -22.13273394 193.38200784 C-22.13207074 200.09315689 -22.13792254 206.80414989 -22.15909004 213.51527023 C-22.17845946 219.82886434 -22.17860542 226.14217198 -22.16405678 232.45577621 C-22.16196592 234.77086175 -22.16668597 237.08596515 -22.17877769 239.40102005 C-22.19423657 242.5661916 -22.18491692 245.73037626 -22.16951561 248.89552689 C-22.17980274 249.8075102 -22.19008986 250.71949352 -22.20068872 251.65911269 C-22.12917437 258.32893207 -20.77138096 264.54898389 -16.29855287 269.72401214 C-10.81376786 274.64660555 -4.94144843 275.42962213 2.15962887 275.38869667 C3.32081651 275.39395578 3.32081651 275.39395578 4.5054625 275.39932114 C7.102863 275.40863475 9.70003928 275.40371193 12.29744911 275.3988533 C14.17712403 275.40258958 16.0567974 275.40719101 17.9364683 275.41258395 C23.10467212 275.4248321 28.2728113 275.42455134 33.44102633 275.4221952 C39.01375239 275.42178749 44.58645759 275.43282173 50.15917397 275.44231033 C61.07816832 275.45893109 71.99714108 275.46442036 82.91614703 275.46553509 C91.79035868 275.46648502 100.66456319 275.47059257 109.53877258 275.47693634 C130.59801159 275.49168456 151.65724622 275.50398576 172.71649075 275.50293922 C173.38995196 275.50290807 174.06341318 275.50287691 174.75728231 275.50284481 C178.17065216 275.50267859 181.58402201 275.50248051 184.99739186 275.50227539 C186.01425037 275.50221556 186.01425037 275.50221556 187.05165147 275.50215451 C188.42254187 275.50207364 189.79343228 275.50199004 191.16432268 275.50190373 C212.49336796 275.50067821 233.82234964 275.51569172 255.15137672 275.54304886 C279.11531152 275.57377294 303.07919855 275.59095583 327.04315871 275.58912241 C339.73128217 275.58845802 352.41933391 275.59397198 365.10744095 275.61547852 C375.90964325 275.63367089 386.71174132 275.63805358 397.51395229 275.62445967 C403.02593222 275.61792034 408.53771207 275.61784778 414.04967308 275.63516617 C419.09613066 275.65085899 424.1422289 275.64807192 429.18867751 275.6305979 C431.01368145 275.62751967 432.83871196 275.6311913 434.66368458 275.64231806 C448.72240936 276.00836274 448.72240936 276.00836274 460.88583595 269.75494134 C466.45523123 263.69242185 466.61771622 257.07434046 466.58565712 249.31444168 C466.58948267 248.33082354 466.59330821 247.3472054 466.59724969 246.33378065 C466.60756171 243.0405265 466.6035909 239.74744728 466.59961891 236.45418167 C466.60396638 234.09192112 466.60914965 231.72966198 466.61510658 229.36740494 C466.62850423 222.95212255 466.62907437 216.53689905 466.62654328 210.1216054 C466.62525968 206.11367073 466.62788199 202.10574173 466.63153076 198.09780884 C466.63242355 197.09919983 466.63242355 197.09919983 466.63333436 196.08041691 C466.63454614 194.72787496 466.63576028 193.37533302 466.63697674 192.02279107 C466.64784892 179.34335949 466.64569138 166.66395451 466.6395919 153.98452143 C466.63442364 142.39255865 466.64567631 130.80067991 466.66469011 119.20873375 C466.68407634 107.29816651 466.6923231 95.38763902 466.68856686 83.47705591 C466.68665593 76.79337768 466.68939711 70.10976048 466.7032814 63.42609406 C466.71585012 57.14043134 466.71392451 50.85493692 466.70087051 44.56927681 C466.69850309 42.26344941 466.70124531 39.9576102 466.70949364 37.65179634 C466.71994851 34.50179585 466.71187007 31.35236134 466.69918251 28.20238113 C466.7065568 27.29205804 466.71393108 26.38173496 466.72152883 25.44382632 C466.6674938 19.05753752 465.82646473 13.26890738 461.71167946 8.10799026 C461.15093727 7.66197464 460.59019508 7.21595901 460.01246071 6.75642776 C459.4594529 6.29494339 458.90644508 5.83345901 458.33667946 5.35799026 C453.28837142 2.27999274 448.25401659 1.84092291 442.47188187 1.87415886 C441.6957688 1.87065278 440.91965573 1.86714671 440.12002409 1.86353439 C437.51587105 1.85422053 434.91194165 1.85914366 432.30777931 1.86400223 C430.4232669 1.86026597 428.53875604 1.85566455 426.65424764 1.85027158 C421.47271168 1.83802332 416.29124019 1.8383042 411.10969305 1.84066033 C405.52267108 1.84106803 399.93566991 1.83003389 394.34865761 1.8205452 C383.40192479 1.80392464 372.4552135 1.79843519 361.50846912 1.79732044 C352.61231906 1.79637055 343.71617611 1.79226321 334.82002831 1.78591919 C313.71017494 1.77117133 292.60032594 1.75886975 271.49046707 1.75991631 C270.81539778 1.75994746 270.14032848 1.75997862 269.44480254 1.76001072 C266.02326818 1.76017694 262.60173382 1.76037502 259.18019946 1.76058014 C258.50066965 1.76062003 257.82113984 1.76065992 257.12101822 1.76070102 C255.74684379 1.76078189 254.37266936 1.76086549 252.99849494 1.7609518 C231.61575321 1.76217747 210.23307491 1.74716099 188.85035133 1.71980667 C164.8274625 1.68908753 140.8046213 1.67189939 116.78170717 1.67373312 C104.06175759 1.67439765 91.34187954 1.66887749 78.62194633 1.64737701 C67.7933651 1.62919097 56.96488783 1.62479676 46.13629796 1.63839586 C40.61026526 1.64493826 35.08443214 1.64499673 29.55841827 1.62768936 C24.50029388 1.61201014 19.44252818 1.61476957 14.38441281 1.63225763 C12.55404312 1.63533886 10.723647 1.63165303 8.89330848 1.62053747 C6.40501203 1.60642631 3.91797555 1.61699406 1.42972183 1.63364983 C0.36403982 1.61874529 0.36403982 1.61874529 -0.72317111 1.60353965 C-7.37966696 1.69772628 -13.13955227 4.05024573 -17.55003929 9.06892776 Z " fill="#BFDBFD" transform="translate(35.675039291381836,109.86857223510742)"/>
<path d="M0 0 C0.80546212 -0.00438225 1.61092423 -0.00876451 2.44079429 -0.01327956 C5.14907456 -0.02667078 7.85732228 -0.03284716 10.56562805 -0.03897095 C12.50380602 -0.04687168 14.44198252 -0.05514061 16.38015747 -0.06375122 C22.75357152 -0.08997532 29.12699214 -0.10527954 35.5004425 -0.11953735 C37.69408993 -0.12489693 39.88773732 -0.13027444 42.08138466 -0.13566971 C51.20628509 -0.15729925 60.33118374 -0.17603599 69.45610332 -0.1872921 C82.53485859 -0.20353133 95.61331677 -0.23670785 108.69196004 -0.29369295 C117.88697397 -0.33239111 127.08190844 -0.35192468 136.27700168 -0.35721266 C141.76923157 -0.36086634 147.26114461 -0.37288969 152.75328636 -0.4053154 C157.92192304 -0.43539349 163.09005111 -0.44170862 168.25875664 -0.42993164 C170.15339809 -0.42971088 172.04806312 -0.43801764 173.94262314 -0.45558548 C176.534868 -0.47830989 179.12527363 -0.46996784 181.7175293 -0.45410156 C182.8351173 -0.47492469 182.8351173 -0.47492469 183.97528285 -0.49616849 C189.76540543 -0.40919258 193.65333689 1.59302262 198.17622375 5.15390015 C202.84880579 10.21415761 202.74446796 14.83487487 202.67793274 21.37850952 C202.68603722 22.90155449 202.68603722 22.90155449 202.69430542 24.45536804 C202.70678638 27.80309426 202.69030515 31.14995945 202.6723175 34.49765015 C202.67247251 36.82882736 202.67396168 39.16000484 202.67672729 41.49118042 C202.67811101 46.37349865 202.66555732 51.25552303 202.64277649 56.13778687 C202.61439235 62.39237024 202.61712974 68.6464654 202.6298666 74.9010849 C202.6368254 79.71381796 202.62903211 84.52643842 202.61660957 89.3391571 C202.61209706 91.6452135 202.61175652 93.95128199 202.61567497 96.25733948 C202.61858907 99.48157484 202.60206983 102.70514013 202.58027649 105.92929077 C202.58702896 107.3555352 202.58702896 107.3555352 202.59391785 108.81059265 C202.53561681 114.00851406 202.09523367 117.6660384 199.17622375 122.15390015 C193.68224901 127.22526145 189.609526 128.45165792 182.22546387 128.42132568 C181.01493071 128.42812235 181.01493071 128.42812235 179.77994233 128.43505633 C177.07237853 128.44772911 174.36501513 128.4460781 171.65742493 128.44442749 C169.7174758 128.45041098 167.77752905 128.45721611 165.83758545 128.46478271 C160.56478049 128.48246903 155.29204042 128.48713923 150.01920867 128.48841429 C145.61814446 128.49031255 141.21709539 128.49766932 136.816037 128.50475848 C126.43210383 128.52105033 116.04820534 128.52592673 105.66426086 128.52450562 C94.95218641 128.52330422 84.24031344 128.54440387 73.52828997 128.57599294 C64.33241267 128.60214481 55.13660121 128.61287335 45.940687 128.6115948 C40.44800794 128.61108481 34.95550786 128.61678833 29.46286583 128.6379509 C24.29589458 128.65731462 19.1292734 128.6574704 13.96228981 128.64291763 C12.06724156 128.64082607 10.1721715 128.64555109 8.27716064 128.65763855 C5.68700755 128.67308817 3.09806189 128.66378518 0.50793457 128.64837646 C-0.23935482 128.65866359 -0.98664422 128.66895072 -1.75657874 128.67954957 C-7.3052092 128.6067668 -10.34945153 127.19989099 -14.82377625 124.15390015 C-18.48941091 120.19887327 -19.94094473 117.20929774 -19.97094727 111.8473053 C-19.97810257 110.96836609 -19.98525787 110.08942688 -19.99263 109.18385315 C-19.99531891 108.2222377 -19.99800781 107.26062225 -20.0007782 106.26986694 C-20.0073494 105.25494171 -20.01392059 104.24001648 -20.02069092 103.19433594 C-20.0404262 99.8305962 -20.05208639 96.46690108 -20.0620575 93.1031189 C-20.06613302 91.95493998 -20.07020855 90.80676105 -20.07440758 89.62378883 C-20.09526818 83.54797164 -20.1095706 77.47217705 -20.11894226 71.39633179 C-20.13001335 65.11811218 -20.16442173 58.84024635 -20.20411396 52.56215191 C-20.23024472 47.73658077 -20.23863092 42.91109443 -20.24222374 38.08545876 C-20.24709795 35.77100037 -20.25873556 33.45654597 -20.27726173 31.1421566 C-20.30157959 27.90319036 -20.30070136 24.66514631 -20.29374695 21.42611694 C-20.30655701 20.47057419 -20.31936707 19.51503143 -20.33256531 18.53053284 C-20.28841669 12.88847366 -19.6213914 9.61404404 -15.82377625 5.15390015 C-10.6596139 0.49355852 -6.74378151 0.00443892 0 0 Z M-17.00171369 11.22588128 C-17.94321094 13.4340155 -18.07776848 15.03402005 -18.08447266 17.42889404 C-18.09155746 18.2755513 -18.09864227 19.12220856 -18.10594177 19.99452209 C-18.10346436 20.91513931 -18.10098694 21.83575653 -18.09843445 22.78427124 C-18.10354538 23.76032822 -18.10865631 24.73638519 -18.11392212 25.74201965 C-18.12782886 28.97052126 -18.12686039 32.19880963 -18.1245575 35.42733765 C-18.12844407 37.6716927 -18.13277866 39.91604703 -18.13754272 42.16040039 C-18.14500745 46.8662657 -18.14471198 51.57205599 -18.13945007 56.27792358 C-18.13365776 62.30609058 -18.15057966 68.3339501 -18.17379475 74.36206627 C-18.18853319 78.99806512 -18.18940357 83.63398996 -18.18628502 88.27000809 C-18.18679826 90.49234246 -18.1920365 92.71468098 -18.20209694 94.93699265 C-18.2144447 98.04644435 -18.20767908 101.15529773 -18.1960907 104.26473999 C-18.20373444 105.18130875 -18.21137817 106.0978775 -18.21925354 107.04222107 C-18.16406395 113.74821186 -17.08820424 117.86422447 -12.22321129 122.78346062 C-8.60778974 125.70341956 -5.0962454 125.85037903 -0.58108521 125.77536011 C0.23314043 125.78174893 1.04736607 125.78813775 1.88626522 125.79472017 C4.60655091 125.80994488 7.32537423 125.78952639 10.04560852 125.76913452 C11.99895205 125.77263645 13.95229272 125.77829584 15.90562439 125.78594971 C21.2052121 125.80019594 26.50428085 125.78313809 31.80381894 125.75966454 C37.34949631 125.7395584 42.89515208 125.74543492 48.44085693 125.74777222 C57.75271668 125.74771865 67.0643735 125.72796178 76.37617493 125.69589233 C87.14398465 125.65898888 97.91152864 125.65021831 108.67939335 125.65718985 C119.0367152 125.66349323 129.39394586 125.65274427 139.75124931 125.63322449 C144.15983822 125.62504692 148.56838054 125.6223416 152.97697639 125.62391663 C158.16694358 125.62479505 163.3566579 125.61059069 168.54655838 125.58469009 C170.45210609 125.57752333 172.35768069 125.57544712 174.26323891 125.57880783 C176.86260642 125.58251799 179.46123411 125.5677915 182.06051636 125.54830933 C182.81615814 125.55363725 183.57179993 125.55896518 184.35033995 125.56445456 C188.81033088 125.50670563 191.61824417 124.87500998 195.17622375 122.15390015 C198.72722866 118.20833914 200.29254795 115.29912341 200.32339478 109.99916077 C200.33055008 109.15387817 200.33770538 108.30859558 200.34507751 107.43769836 C200.34776642 106.51348587 200.35045532 105.58927338 200.35322571 104.63705444 C200.3630825 103.17318802 200.3630825 103.17318802 200.37313843 101.67974854 C200.39287083 98.44587123 200.4045333 95.21204034 200.414505 91.9781189 C200.4206183 90.32204589 200.4206183 90.32204589 200.42685509 88.63251686 C200.44771454 82.79011853 200.46201741 76.94774368 200.47138977 71.10531616 C200.48246013 65.06922676 200.51686795 59.0335054 200.55656147 52.9975462 C200.58269617 48.35726736 200.59107878 43.71707669 200.59467125 39.07673073 C200.59954451 36.85158614 200.61117944 34.62644568 200.62970924 32.40137291 C200.65403543 29.28692746 200.65314742 26.17344065 200.64619446 23.05892944 C200.65900452 22.14078964 200.67181458 21.22264984 200.68501282 20.27668762 C200.62984817 13.49419567 199.02793746 10.46188804 194.61372375 5.34140015 C191.0628201 2.40804495 186.64952531 3.00000438 182.30775452 2.99327087 C181.09237767 2.98563914 181.09237767 2.98563914 179.85244775 2.97785324 C177.12801803 2.96211377 174.40361487 2.95359978 171.67915344 2.94515991 C169.72950064 2.93562274 167.77984954 2.92573164 165.8302002 2.91551208 C159.41952018 2.88411419 153.00882713 2.86386034 146.59809875 2.8453064 C145.50780774 2.84200907 144.41751673 2.83871175 143.29418659 2.83531451 C133.01392981 2.80453575 122.73367013 2.77782538 112.45338058 2.76089573 C99.29899608 2.73897969 86.14501926 2.69698775 72.99079776 2.62745816 C63.7439975 2.58023936 54.49730734 2.55596507 45.25039029 2.54869884 C39.72627236 2.54373983 34.20261386 2.52863459 28.67862701 2.48895454 C23.4812075 2.45211211 18.28451028 2.44367083 13.08698463 2.45696068 C11.18062515 2.45690669 9.27423384 2.44659498 7.36799431 2.42520905 C4.76200067 2.39753815 2.15864332 2.40702941 -0.44737244 2.42564392 C-1.57516613 2.40045153 -1.57516613 2.40045153 -2.72574353 2.3747502 C-9.21739098 2.49038393 -13.77825839 5.55585306 -17.00171369 11.22588128 Z " fill="#83EAC2" transform="translate(551.8237762451172,256.8460998535156)"/>
<path d="M0 0 C0.66 0.33 1.32 0.66 2 1 C2 1.66 2 2.32 2 3 C0.52285534 4.22024994 -0.95851761 5.43753734 -2.4921875 6.5859375 C-4.77872319 8.73030517 -5.86804433 10.93554922 -6.25447559 14.05278587 C-6.25652846 14.78611452 -6.25858133 15.51944317 -6.26069641 16.2749939 C-6.26778122 17.12165115 -6.27486603 17.96830841 -6.28216553 18.84062195 C-6.27968811 19.76123917 -6.27721069 20.68185638 -6.2746582 21.63037109 C-6.27976913 22.60642807 -6.28488007 23.58248505 -6.29014587 24.58811951 C-6.30405261 27.81662112 -6.30308415 31.04490949 -6.30078125 34.2734375 C-6.30466782 36.51779256 -6.30900241 38.76214688 -6.31376648 41.00650024 C-6.3212312 45.71236555 -6.32093574 50.41815584 -6.31567383 55.12402344 C-6.30988152 61.15219044 -6.32680342 67.18004996 -6.3500185 73.20816612 C-6.36475694 77.84416497 -6.36562733 82.48008981 -6.36250877 87.11610794 C-6.36302201 89.33844232 -6.36826026 91.56078083 -6.37832069 93.7830925 C-6.39066846 96.89254421 -6.38390283 100.00139758 -6.37231445 103.11083984 C-6.37995819 104.0274086 -6.38760193 104.94397736 -6.39547729 105.88832092 C-6.35337098 111.00458548 -5.88181878 114.58686324 -3 119 C-1.34466005 120.34736973 0.32012773 121.68334336 2 123 C2 123.99 2 124.98 2 126 C-3.03372844 124.56179187 -4.98955889 122.09754485 -8 118 C-8.923969 115.228093 -9.13115967 113.55492139 -9.14717102 110.69340515 C-9.15432632 109.81446594 -9.16148163 108.93552673 -9.16885376 108.029953 C-9.17154266 107.06833755 -9.17423157 106.10672211 -9.17700195 105.1159668 C-9.18357315 104.10104156 -9.19014435 103.08611633 -9.19691467 102.04043579 C-9.21664996 98.67669605 -9.22831014 95.31300094 -9.23828125 91.94921875 C-9.24235678 90.80103983 -9.2464323 89.65286091 -9.25063133 88.46988869 C-9.27149193 82.3940715 -9.28579435 76.3182769 -9.29516602 70.24243164 C-9.3062371 63.96421203 -9.34064548 57.6863462 -9.38033772 51.40825176 C-9.40646848 46.58268062 -9.41485467 41.75719428 -9.41844749 36.93155861 C-9.42332171 34.61710022 -9.43495931 32.30264583 -9.45348549 29.98825645 C-9.47780335 26.74929021 -9.47692512 23.51124617 -9.4699707 20.2722168 C-9.48278076 19.31667404 -9.49559082 18.36113129 -9.50878906 17.37663269 C-9.46466301 11.73745753 -8.8052408 8.45159325 -5 4 C-2.25 1.625 -2.25 1.625 0 0 Z " fill="#6EE7B7" transform="translate(541,258)"/>
<path d="M0 0 C3.70635331 1.94142316 5.76880975 4.6626195 7.625 8.375 C7.7229326 9.76779304 7.76001041 11.16511909 7.76544189 12.56134033 C7.77400711 13.87768715 7.77400711 13.87768715 7.78274536 15.22062683 C7.78386322 16.18583755 7.78498108 17.15104828 7.78613281 18.14550781 C7.79109772 19.16028702 7.79606262 20.17506622 7.80117798 21.22059631 C7.81582556 24.58977936 7.82260646 27.9589153 7.828125 31.328125 C7.83387498 33.66501874 7.83963273 36.00191245 7.84539795 38.33880615 C7.85591579 43.24491598 7.86175311 48.15100938 7.86523438 53.05712891 C7.87071611 59.34315961 7.89473419 65.62897337 7.92320633 71.91493607 C7.94183383 76.7447981 7.94703841 81.57460794 7.94857025 86.40450287 C7.95159781 88.72174005 7.95962977 91.0389763 7.97275543 93.35617828 C7.98981541 96.59992433 7.98793538 99.84314132 7.98144531 103.08691406 C7.9906601 104.04402786 7.99987488 105.00114166 8.0093689 105.98725891 C7.97666071 111.20752659 7.56699733 114.87095605 4.625 119.375 C1.93826499 121.86022988 0.09952861 123.2168238 -3.375 124.375 C-3.705 123.385 -4.035 122.395 -4.375 121.375 C-3.611875 120.9625 -2.84875 120.55 -2.0625 120.125 C1.65701546 117.70298993 3.2289192 115.5632424 4.625 111.375 C4.72115441 109.99255822 4.76410564 108.60601886 4.77217102 107.22026062 C4.77932632 106.37497803 4.78648163 105.52969543 4.79385376 104.65879822 C4.79654266 103.73458572 4.79923157 102.81037323 4.80200195 101.8581543 C4.81185875 100.39428787 4.81185875 100.39428787 4.82191467 98.90084839 C4.84164707 95.66697108 4.85330954 92.43314019 4.86328125 89.19921875 C4.86939454 87.54314574 4.86939454 87.54314574 4.87563133 85.85361671 C4.89649079 80.01121838 4.91079365 74.16884354 4.92016602 68.32641602 C4.93123638 62.29032661 4.96564419 56.25460525 5.00533772 50.21864605 C5.03147241 45.57836722 5.03985502 40.93817654 5.04344749 36.29783058 C5.04832076 34.07268599 5.05995569 31.84754553 5.07848549 29.62247276 C5.10281167 26.50802731 5.10192366 23.39454051 5.0949707 20.2800293 C5.10778076 19.3618895 5.12059082 18.44374969 5.13378906 17.49778748 C5.08867697 11.95125672 4.34264548 8.76394034 0.625 4.375 C-1.9841387 2.05222584 -1.9841387 2.05222584 -4.375 0.375 C-2.375 -0.625 -2.375 -0.625 0 0 Z " fill="#6EE7B7" transform="translate(746.375,259.625)"/>
<path d="M0 0 C2.3125 1.5 2.3125 1.5 4 3 C4.37125 2.505 4.7425 2.01 5.125 1.5 C7.79160885 -0.63328708 9.67893663 -0.35330461 13 0 C15 2 15 2 15.1953125 4.6015625 C15.17210937 5.59929688 15.14890625 6.59703125 15.125 7.625 C15.10695312 8.62789062 15.08890625 9.63078125 15.0703125 10.6640625 C15.04710937 11.43492188 15.02390625 12.20578125 15 13 C13.5629191 13.05422947 12.12524538 13.09289723 10.6875 13.125 C9.88699219 13.14820313 9.08648437 13.17140625 8.26171875 13.1953125 C6 13 6 13 3 11 C2.01 11.66 1.02 12.32 0 13 C-2.79523674 13.34940459 -4.3648354 13.37233787 -6.8125 11.9375 C-8.67036623 8.90624457 -8.37133265 6.46577141 -8 3 C-5.94421302 -0.35417875 -3.76306035 -0.55069176 0 0 Z " fill="#CAE2F9" transform="translate(152,29)"/>
<path d="M0 0 C0.66 0.66 1.32 1.32 2 2 C2.66 1.01 3.32 0.02 4 -1 C7.0625 -1.25 7.0625 -1.25 10 -1 C11 0 11 0 11.09765625 2.28515625 C11.08605469 3.20167969 11.07445312 4.11820312 11.0625 5.0625 C11.05347656 5.98160156 11.04445313 6.90070313 11.03515625 7.84765625 C11.02355469 8.55792969 11.01195312 9.26820313 11 10 C4.47410359 10.12549801 4.47410359 10.12549801 1.875 9.4375 C-0.11634835 8.8240713 -0.11634835 8.8240713 -2.5625 9.625 C-5 10 -5 10 -6.875 9 C-8.65049945 5.84355654 -7.82068609 3.40900375 -7 0 C-4.29393021 -1.35303489 -2.8671629 -0.7884698 0 0 Z " fill="#9DCCC6" transform="translate(638,280)"/>
<path d="M0 0 C0.66 0 1.32 0 2 0 C2.33 1.32 2.66 2.64 3 4 C4.4540625 4.185625 4.4540625 4.185625 5.9375 4.375 C7.4534375 4.684375 7.4534375 4.684375 9 5 C10.52491998 8.04983996 10.23562548 10.6423369 10 14 C8.9375 15.9375 8.9375 15.9375 7 17 C4.69 17 2.38 17 0 17 C0 11.39 0 5.78 0 0 Z " fill="#333B5C" transform="translate(81,25)"/>
<path d="M0 0 C0.66 0 1.32 0 2 0 C2 5.61 2 11.22 2 17 C-5 17 -5 17 -6.9375 15.9375 C-8.6140629 12.88023824 -8.36528977 10.4093712 -8 7 C-6.75 5 -6.75 5 -5 4 C-2.8125 4.3125 -2.8125 4.3125 -1 5 C-0.67 3.35 -0.34 1.7 0 0 Z " fill="#443E4B" transform="translate(177,25)"/>
<path d="M0 0 C1.670625 0.061875 1.670625 0.061875 3.375 0.125 C3.42886629 2.24972576 3.46773071 4.37483652 3.5 6.5 C3.52320313 7.68335938 3.54640625 8.86671875 3.5703125 10.0859375 C3.375 13.125 3.375 13.125 1.375 15.125 C-1.75 15.25 -1.75 15.25 -4.625 15.125 C-4.955 14.135 -5.285 13.145 -5.625 12.125 C-3.315 12.455 -1.005 12.785 1.375 13.125 C1.045 12.465 0.715 11.805 0.375 11.125 C-1.28321773 10.75190101 -2.95077014 10.41799023 -4.625 10.125 C-5.625 9.125 -5.625 9.125 -5.8125 5.6875 C-5.55408081 0.77753534 -4.91598639 0.16951677 0 0 Z " fill="#3B8C8E" transform="translate(609.625,278.875)"/>
<path d="M0 0 C0.99 0 1.98 0 3 0 C4.82421875 2.40625 4.82421875 2.40625 6.6875 5.5 C7.31011719 6.5209375 7.93273438 7.541875 8.57421875 8.59375 C9.04472656 9.3878125 9.51523437 10.181875 10 11 C10.33 7.37 10.66 3.74 11 0 C11.66 0 12.32 0 13 0 C13 5.61 13 11.22 13 17 C7.33251525 14.16625763 6.08828336 10.47468414 3 5 C2.67 8.96 2.34 12.92 2 17 C1.34 17 0.68 17 0 17 C0 11.39 0 5.78 0 0 Z " fill="#393154" transform="translate(41,25)"/>
<path d="M0 0 C0.66 0 1.32 0 2 0 C2 4.95 2 9.9 2 15 C-0.31 15 -2.62 15 -5 15 C-7.30163882 11.54754176 -7.34490322 10.05261287 -7 6 C-6.34 5.34 -5.68 4.68 -5 4 C-3.68 4 -2.36 4 -1 4 C-0.67 2.68 -0.34 1.36 0 0 Z " fill="#4F928C" transform="translate(665,275)"/>
<path d="M0 0 C0.66 0 1.32 0 2 0 C2 4.95 2 9.9 2 15 C-0.31 15 -2.62 15 -5 15 C-7.30163882 11.54754176 -7.34490322 10.05261287 -7 6 C-6.34 5.34 -5.68 4.68 -5 4 C-3.68 4 -2.36 4 -1 4 C-0.67 2.68 -0.34 1.36 0 0 Z " fill="#4E425B" transform="translate(147,134)"/>
<path d="M0 0 C2.875 -0.125 2.875 -0.125 6 0 C8 2 8 2 8.1953125 4.6015625 C8.17210937 5.59929688 8.14890625 6.59703125 8.125 7.625 C8.10695312 8.62789062 8.08890625 9.63078125 8.0703125 10.6640625 C8.03550781 11.82035156 8.03550781 11.82035156 8 13 C6.54207116 13.05399736 5.08357288 13.09279177 3.625 13.125 C2.81289062 13.14820313 2.00078125 13.17140625 1.1640625 13.1953125 C-1 13 -1 13 -3 11 C-3 9 -3 9 -2 7 C0.74177497 5.83328724 3.00567607 5 6 5 C5.67 4.34 5.34 3.68 5 3 C2.47266765 2.34444881 2.47266765 2.34444881 0 2 C0 2.66 0 3.32 0 4 C-0.66 4 -1.32 4 -2 4 C-1.34 2.68 -0.68 1.36 0 0 Z " fill="#3A4F6D" transform="translate(159,29)"/>
<path d="M0 0 C2.875 -0.125 2.875 -0.125 6 0 C8 2 8 2 8.1953125 4.6015625 C8.17210938 5.59929688 8.14890625 6.59703125 8.125 7.625 C8.10695313 8.62789062 8.08890625 9.63078125 8.0703125 10.6640625 C8.03550781 11.82035156 8.03550781 11.82035156 8 13 C6.54207116 13.05399736 5.08357288 13.09279177 3.625 13.125 C2.81289063 13.14820313 2.00078125 13.17140625 1.1640625 13.1953125 C-1 13 -1 13 -3 11 C-3 9 -3 9 -2 7 C0.74177497 5.83328724 3.00567607 5 6 5 C5.67 4.34 5.34 3.68 5 3 C2.47266765 2.34444881 2.47266765 2.34444881 0 2 C0 2.66 0 3.32 0 4 C-0.66 4 -1.32 4 -2 4 C-1.34 2.68 -0.68 1.36 0 0 Z " fill="#3A4F6D" transform="translate(59,29)"/>
<path d="M0 0 C2.875 -0.125 2.875 -0.125 6 0 C8 2 8 2 8.1953125 4.6015625 C8.17210938 5.59929688 8.14890625 6.59703125 8.125 7.625 C8.10695313 8.62789062 8.08890625 9.63078125 8.0703125 10.6640625 C8.03550781 11.82035156 8.03550781 11.82035156 8 13 C6.52093108 13.02689216 5.04172517 13.04634621 3.5625 13.0625 C2.32693359 13.07990234 2.32693359 13.07990234 1.06640625 13.09765625 C-1 13 -1 13 -2 12 C-2.04063832 10.33382885 -2.042721 8.66611905 -2 7 C3.75 5 3.75 5 6 5 C6 4.01 6 3.02 6 2 C3.36 2.66 0.72 3.32 -2 4 C-1.34 2.68 -0.68 1.36 0 0 Z " fill="#494B59" transform="translate(95,29)"/>
<path d="M0 0 C2.875 0.6875 2.875 0.6875 3.875 1.6875 C3.91563832 3.35367115 3.917721 5.02138095 3.875 6.6875 C1.235 6.6875 -1.405 6.6875 -4.125 6.6875 C-3.795 7.6775 -3.465 8.6675 -3.125 9.6875 C0.34 9.1925 0.34 9.1925 3.875 8.6875 C3.215 10.0075 2.555 11.3275 1.875 12.6875 C-1.5 12.375 -1.5 12.375 -5.125 11.6875 C-7.125 8.6875 -7.125 8.6875 -6.9375 5.125 C-5.86852475 0.60241239 -4.67309649 -0.46730965 0 0 Z " fill="#423E43" transform="translate(188.125,29.3125)"/>
<path d="M0 0 C1.0725 0.165 2.145 0.33 3.25 0.5 C6.63617619 0.95149016 8.75681674 0.88450453 12 0 C12.33 0.66 12.66 1.32 13 2 C11.68 1.67 10.36 1.34 9 1 C9 1.66 9 2.32 9 3 C10.32 3.33 11.64 3.66 13 4 C12.67 5.32 12.34 6.64 12 8 C10.02090602 8.02686553 8.04171029 8.04633375 6.0625 8.0625 C4.96035156 8.07410156 3.85820312 8.08570313 2.72265625 8.09765625 C0 8 0 8 -1 7 C-1.125 4 -1.125 4 -1 1 C-0.67 0.67 -0.34 0.34 0 0 Z " fill="#A9AFB8" transform="translate(253,409)"/>
<path d="M0 0 C0.66 1.32 1.32 2.64 2 4 C5.05908413 4.81584568 5.05908413 4.81584568 8 5 C9.32850242 11.40096618 9.32850242 11.40096618 7.9375 13.9375 C6 15 6 15 0 15 C0 10.05 0 5.1 0 0 Z " fill="#313F59" transform="translate(101,134)"/>
<path d="M0 0 C1.32561852 6.38707103 1.32561852 6.38707103 -0.0625 9 C-2.91405714 10.47177143 -4.96704093 9.74138999 -8 9 C-9.32561852 2.61292897 -9.32561852 2.61292897 -7.9375 0 C-5.08594286 -1.47177143 -3.03295907 -0.74138999 0 0 Z " fill="#47495F" transform="translate(120,139)"/>
<path d="M0 0 C1.8125 1.375 1.8125 1.375 3 3 C3 3.66 3 4.32 3 5 C2.34 5 1.68 5 1 5 C0.67 4.34 0.34 3.68 0 3 C-1.65 3 -3.3 3 -5 3 C-5 3.66 -5 4.32 -5 5 C-2.36 5.99 0.28 6.98 3 8 C3.125 10.375 3.125 10.375 3 13 C1 15 1 15 -1.9375 15.25 C-5 15 -5 15 -8 13 C-8 12.01 -8 11.02 -8 10 C-7.34 10 -6.68 10 -6 10 C-5.67 10.66 -5.34 11.32 -5 12 C-1.97065509 12.65772428 -1.97065509 12.65772428 1 13 C1 11.68 1 10.36 1 9 C0.071875 8.87625 -0.85625 8.7525 -1.8125 8.625 C-5 8 -5 8 -8 6 C-7.625 3.5625 -7.625 3.5625 -7 1 C-4.45132831 -0.27433584 -2.82594567 -0.27570202 0 0 Z " fill="#2F898D" transform="translate(561,275)"/>
<path d="M0 0 C0.33 -0.33 0.66 -0.66 1 -1 C2.66617115 -1.04063832 4.33388095 -1.042721 6 -1 C5.01 -0.67 4.02 -0.34 3 0 C3 2.31 3 4.62 3 7 C1.52093108 7.02689216 0.04172517 7.04634621 -1.4375 7.0625 C-2.67306641 7.07990234 -2.67306641 7.07990234 -3.93359375 7.09765625 C-6 7 -6 7 -7 6 C-7.04080783 4.00041636 -7.04254356 1.99954746 -7 0 C-4.3351451 -1.33242745 -2.85216588 -0.58505967 0 0 Z " fill="#A8B3BF" transform="translate(77,410)"/>
<path d="M0 0 C0.33 0 0.66 0 1 0 C1.33 1.65 1.66 3.3 2 5 C3.32 4.34 4.64 3.68 6 3 C6.33 3.33 6.66 3.66 7 4 C8.67542976 3.71395102 10.34385343 3.38218767 12 3 C12.33 3.66 12.66 4.32 13 5 C11.68 4.67 10.36 4.34 9 4 C9 4.66 9 5.32 9 6 C10.32 6.33 11.64 6.66 13 7 C12.67 8.32 12.34 9.64 12 11 C9.36 11 6.72 11 4 11 C3.67 9.68 3.34 8.36 3 7 C2.34 7 1.68 7 1 7 C0.67 8.32 0.34 9.64 0 11 C0 7.37 0 3.74 0 0 Z " fill="#858AA0" transform="translate(103,406)"/>
<path d="M0 0 C1.99954746 -0.04254356 4.00041636 -0.04080783 6 0 C7 1 7 1 7.09765625 3.28515625 C7.08605469 4.20167969 7.07445312 5.11820312 7.0625 6.0625 C7.05347656 6.98160156 7.04445313 7.90070313 7.03515625 8.84765625 C7.02355469 9.55792969 7.01195312 10.26820313 7 11 C0.25 11.125 0.25 11.125 -2 10 C-2 8.68 -2 7.36 -2 6 C0.64738916 4.5393715 1.89448334 4 5 4 C5 3.34 5 2.68 5 2 C3.02 2.33 1.04 2.66 -1 3 C-0.67 2.01 -0.34 1.02 0 0 Z " fill="#63A59E" transform="translate(642,279)"/>
<path d="M0 0 C2.14576637 -0.02685938 4.29162645 -0.04633088 6.4375 -0.0625 C7.63246094 -0.07410156 8.82742187 -0.08570313 10.05859375 -0.09765625 C13 0 13 0 14 1 C14.07205511 2.68608966 14.08386068 4.37500659 14.0625 6.0625 C14.05347656 6.98160156 14.04445313 7.90070313 14.03515625 8.84765625 C14.02355469 9.55792969 14.01195313 10.26820313 14 11 C13.67 11 13.34 11 13 11 C13 8.03 13 5.06 13 2 C11.68 2.33 10.36 2.66 9 3 C8.67 5.64 8.34 8.28 8 11 C7.34 11 6.68 11 6 11 C6 8.03 6 5.06 6 2 C5.01 2.33 4.02 2.66 3 3 C2.67 5.64 2.34 8.28 2 11 C1.34 11 0.68 11 0 11 C0 7.37 0 3.74 0 0 Z " fill="#585058" transform="translate(67,138)"/>
<path d="M0 0 C2.5 0.25 2.5 0.25 4.5 2.25 C4.5 3.57 4.5 4.89 4.5 6.25 C2.19 6.25 -0.12 6.25 -2.5 6.25 C-2.5 7.24 -2.5 8.23 -2.5 9.25 C-0.85 9.25 0.8 9.25 2.5 9.25 C2.5 8.59 2.5 7.93 2.5 7.25 C3.16 7.25 3.82 7.25 4.5 7.25 C3.84 8.57 3.18 9.89 2.5 11.25 C0.125 11.375 0.125 11.375 -2.5 11.25 C-4.5 9.25 -4.5 9.25 -4.75 5.75 C-4.46177779 1.71488904 -4.15174939 0.41517494 0 0 Z " fill="#569C97" transform="translate(570.5,278.75)"/>
<path d="M0 0 C2 2 2 2 2.1953125 4.1640625 C2.17210938 4.97617188 2.14890625 5.78828125 2.125 6.625 C2.10695313 7.44226563 2.08890625 8.25953125 2.0703125 9.1015625 C2.03550781 10.04128906 2.03550781 10.04128906 2 11 C-0.64 11 -3.28 11 -6 11 C-6.33 9.35 -6.66 7.7 -7 6 C-4.69 5.34 -2.38 4.68 0 4 C-0.33 3.34 -0.66 2.68 -1 2 C-2.98 2.33 -4.96 2.66 -7 3 C-7 2.34 -7 1.68 -7 1 C-4.48718205 -0.25640898 -2.78302919 -0.20872719 0 0 Z " fill="#5E6C82" transform="translate(63,138)"/>
<path d="M0 0 C0.66 0 1.32 0 2 0 C2.33 1.32 2.66 2.64 3 4 C3.78375 3.95875 4.5675 3.9175 5.375 3.875 C8 4 8 4 10 6 C10.1953125 8.6015625 10.1953125 8.6015625 10.125 11.625 C10.10695312 12.62789062 10.08890625 13.63078125 10.0703125 14.6640625 C10.03550781 15.82035156 10.03550781 15.82035156 10 17 C9.34 17 8.68 17 8 17 C7.67 13.7 7.34 10.4 7 7 C5.68 7 4.36 7 3 7 C2.67 10.3 2.34 13.6 2 17 C1.34 17 0.68 17 0 17 C0 11.39 0 5.78 0 0 Z " fill="#363A62" transform="translate(132,25)"/>
<path d="M0 0 C0 0.99 0 1.98 0 3 C-0.99 2.34 -1.98 1.68 -3 1 C-5.64632287 1.3121764 -5.64632287 1.3121764 -8 2 C-9.04214691 6.61507774 -9.04214691 6.61507774 -8 11 C-5.69 11 -3.38 11 -1 11 C-0.67 10.34 -0.34 9.68 0 9 C-1.65 9 -3.3 9 -5 9 C-5 8.34 -5 7.68 -5 7 C-2.69 7 -0.38 7 2 7 C2.1875 9.375 2.1875 9.375 2 12 C-1.48868651 14.32579101 -2.89718519 14.41865457 -7 14 C-9.375 13.0625 -9.375 13.0625 -11 11 C-11.5655824 7.9008393 -11.5588754 5.09974192 -11 2 C-7.97861788 -2.10907968 -4.59200188 -0.97138501 0 0 Z " fill="#383849" transform="translate(52,135)"/>
<path d="M0 0 C0.33 1.65 0.66 3.3 1 5 C-1.64 5 -4.28 5 -7 5 C-6.01 6.485 -6.01 6.485 -5 8 C-3.35 7.34 -1.7 6.68 0 6 C0 6.99 0 7.98 0 9 C-5.44736842 10.33157895 -5.44736842 10.33157895 -7.875 8.875 C-9.37957373 6.36737712 -9.4318188 4.87879197 -9 2 C-6.63480795 -1.94198675 -4.0732639 -0.99568673 0 0 Z " fill="#414353" transform="translate(92,139)"/>
<path d="M0 0 C1.99954746 -0.04254356 4.00041636 -0.04080783 6 0 C7 1 7 1 7.09765625 3.28515625 C7.08605469 4.20167969 7.07445312 5.11820313 7.0625 6.0625 C7.05347656 6.98160156 7.04445312 7.90070313 7.03515625 8.84765625 C7.02355469 9.55792969 7.01195312 10.26820313 7 11 C4.69 11 2.38 11 0 11 C-0.33 9.35 -0.66 7.7 -1 6 C0.98 5.34 2.96 4.68 5 4 C5 3.34 5 2.68 5 2 C3.02 2.33 1.04 2.66 -1 3 C-0.67 2.01 -0.34 1.02 0 0 Z " fill="#757B89" transform="translate(124,138)"/>
<path d="M0 0 C0.33 1.32 0.66 2.64 1 4 C2.32 4 3.64 4 5 4 C5.33 3.01 5.66 2.02 6 1 C6 1.99 6 2.98 6 4 C6.66 4.33 7.32 4.66 8 5 C7.34 5 6.68 5 6 5 C6.144375 6.27875 6.28875 7.5575 6.4375 8.875 C6.51871094 9.59429687 6.59992187 10.31359375 6.68359375 11.0546875 C6.91292961 13.07404316 6.91292961 13.07404316 8 15 C6.68 14.67 5.36 14.34 4 14 C4 11.36 4 8.72 4 6 C3.01 6 2.02 6 1 6 C1 8.64 1 11.28 1 14 C1.66 14.33 2.32 14.66 3 15 C1.68 14.67 0.36 14.34 -1 14 C-1.22331199 12.41870971 -1.42804644 10.83478911 -1.625 9.25 C-1.74101563 8.36828125 -1.85703125 7.4865625 -1.9765625 6.578125 C-2.00207817 3.77140122 -1.44843844 2.36615134 0 0 Z " fill="#579794" transform="translate(579,275)"/>
<path d="M0 0 C0.78375 0.04125 1.5675 0.0825 2.375 0.125 C2.40188151 1.77074566 2.42134123 3.41661413 2.4375 5.0625 C2.44910156 5.97902344 2.46070313 6.89554687 2.47265625 7.83984375 C2.375 10.125 2.375 10.125 1.375 11.125 C-0.29117115 11.16563832 -1.95888095 11.167721 -3.625 11.125 C-3.295 10.465 -2.965 9.805 -2.625 9.125 C-1.635 9.455 -0.645 9.785 0.375 10.125 C0.375 9.465 0.375 8.805 0.375 8.125 C-0.945 7.795 -2.265 7.465 -3.625 7.125 C-4.25 4.75 -4.25 4.75 -4.625 2.125 C-2.625 0.125 -2.625 0.125 0 0 Z " fill="#696E85" transform="translate(247.625,408.875)"/>
<path d="M0 0 C0.66 0 1.32 0 2 0 C2 3.63 2 7.26 2 11 C0.00045254 11.04254356 -2.00041636 11.04080783 -4 11 C-5 10 -5 10 -5.0625 6.9375 C-5.041875 5.968125 -5.02125 4.99875 -5 4 C-3.35 3.67 -1.7 3.34 0 3 C0 2.01 0 1.02 0 0 Z " fill="#707889" transform="translate(240,406)"/>
<path d="M0 0 C0.66 0 1.32 0 2 0 C2 0.99 2 1.98 2 3 C3.32 3.33 4.64 3.66 6 4 C6.625 6.375 6.625 6.375 7 9 C6.34 9.66 5.68 10.32 5 11 C3.35 11 1.7 11 0 11 C0 7.37 0 3.74 0 0 Z " fill="#B3C0CC" transform="translate(219,406)"/>
<path d="M0 0 C0.66 0.33 1.32 0.66 2 1 C2.49644634 3.73045487 2.36417913 5.43963009 0.83984375 7.78515625 C-2.04690975 11.26254986 -4.83345551 14.08564172 -9 16 C-9.99 16 -10.98 16 -12 16 C-12.33 15.01 -12.66 14.02 -13 13 C-11.948125 12.62875 -10.89625 12.2575 -9.8125 11.875 C-5.57659643 10.06206764 -3.61563546 7.76959227 -1 4 C-0.14720662 1.78264561 -0.14720662 1.78264561 0 0 Z " fill="#9FCBFD" transform="translate(751,71)"/>
<path d="M0 0 C0.66 0.99 1.32 1.98 2 3 C-0.31 3 -2.62 3 -5 3 C-5.33 3.99 -5.66 4.98 -6 6 C-4.35 6 -2.7 6 -1 6 C-1 6.33 -1 6.66 -1 7 C-2.65 7 -4.3 7 -6 7 C-5.67 8.32 -5.34 9.64 -5 11 C-3.35 11 -1.7 11 0 11 C0 10.34 0 9.68 0 9 C0.66 9 1.32 9 2 9 C1.34 10.32 0.68 11.64 0 13 C-2.70313576 13.21917317 -4.43958382 13.32851983 -6.8125 11.9375 C-8.67036623 8.90624457 -8.37133265 6.46577141 -8 3 C-5.9593569 -0.32947031 -3.74730183 -0.57650797 0 0 Z " fill="#383A4D" transform="translate(152,29)"/>
<path d="M0 0 C0.66 0 1.32 0 2 0 C2.99 2.64 3.98 5.28 5 8 C5.99 5.36 6.98 2.72 8 0 C8.66 0 9.32 0 10 0 C9.71517632 1.41805831 9.42181856 2.83440379 9.125 4.25 C8.96257812 5.03890625 8.80015625 5.8278125 8.6328125 6.640625 C8.00849925 8.96831144 7.15161458 10.89031952 6 13 C5.01 12.67 4.02 12.34 3 12 C2.05078125 10.0390625 2.05078125 10.0390625 1.3125 7.625 C1.06113281 6.83351563 0.80976562 6.04203125 0.55078125 5.2265625 C0 3 0 3 0 0 Z " fill="#3A4360" transform="translate(69,29)"/>
<path d="M0 0 C0.33 0 0.66 0 1 0 C1 3.63 1 7.26 1 11 C-0.65 11 -2.3 11 -4 11 C-4.66 10.34 -5.32 9.68 -6 9 C-5.625 6.375 -5.625 6.375 -5 4 C-3.35 3.67 -1.7 3.34 0 3 C0 2.01 0 1.02 0 0 Z " fill="#686A83" transform="translate(179,406)"/>
<path d="M0 0 C0.33 0 0.66 0 1 0 C1 3.63 1 7.26 1 11 C-0.65 11 -2.3 11 -4 11 C-4.66 10.34 -5.32 9.68 -6 9 C-5.625 6.375 -5.625 6.375 -5 4 C-3.35 3.67 -1.7 3.34 0 3 C0 2.01 0 1.02 0 0 Z " fill="#686A83" transform="translate(144,406)"/>
<path d="M0 0 C3.375 -0.125 3.375 -0.125 7 0 C9 2 9 2 9.1953125 4.1640625 C9.17210937 4.97617187 9.14890625 5.78828125 9.125 6.625 C9.10695313 7.44226563 9.08890625 8.25953125 9.0703125 9.1015625 C9.03550781 10.04128906 9.03550781 10.04128906 9 11 C8.34 11 7.68 11 7 11 C7 8.03 7 5.06 7 2 C5.68 2.33 4.36 2.66 3 3 C2.67 5.64 2.34 8.28 2 11 C1.34 11 0.68 11 0 11 C0 7.37 0 3.74 0 0 Z " fill="#3A8B92" transform="translate(593,279)"/>
<path d="M0 0 C1.67542976 0.28604898 3.34385343 0.61781233 5 1 C5 3.31 5 5.62 5 8 C3.34385343 8.38218767 1.67542976 8.71395102 0 9 C-1 8 -1 8 -1.125 4.5 C-1 1 -1 1 0 0 Z " fill="#CEE4F5" transform="translate(172,31)"/>
<path d="M0 0 C1.67542976 0.28604898 3.34385343 0.61781233 5 1 C5 3.31 5 5.62 5 8 C3.34385343 8.38218767 1.67542976 8.71395102 0 9 C-1 8 -1 8 -1.125 4.5 C-1 1 -1 1 0 0 Z " fill="#D3E3EF" transform="translate(84,31)"/>
<path d="M0 0 C0 1.98 0 3.96 0 6 C-2.375 6.625 -2.375 6.625 -5 7 C-7 5 -7 5 -7.125 2.375 C-7.08375 1.59125 -7.0425 0.8075 -7 0 C-4.3333581 -1.33332095 -2.83319697 -0.67102033 0 0 Z " fill="#66718E" transform="translate(56,410)"/>
<path d="M0 0 C2.875 -0.125 2.875 -0.125 6 0 C8 2 8 2 8.1953125 4.6015625 C8.17210938 5.59929688 8.14890625 6.59703125 8.125 7.625 C8.10695313 8.62789062 8.08890625 9.63078125 8.0703125 10.6640625 C8.03550781 11.82035156 8.03550781 11.82035156 8 13 C7.67 12.34 7.34 11.68 7 11 C6.34 10.67 5.68 10.34 5 10 C5.33 9.01 5.66 8.02 6 7 C4.35 7 2.7 7 1 7 C4 5 4 5 6 5 C6 4.01 6 3.02 6 2 C3.36 2.66 0.72 3.32 -2 4 C-1.34 2.68 -0.68 1.36 0 0 Z " fill="#363955" transform="translate(95,29)"/>
<path d="M0 0 C0 0.66 0 1.32 0 2 C-1.65 1.67 -3.3 1.34 -5 1 C-5.33 1.66 -5.66 2.32 -6 3 C-4.02 3.66 -2.04 4.32 0 5 C0 6.32 0 7.64 0 9 C-5.75 10.125 -5.75 10.125 -8 9 C-8 8.01 -8 7.02 -8 6 C-7.34 6 -6.68 6 -6 6 C-5.67 6.66 -5.34 7.32 -5 8 C-4.34 8 -3.68 8 -3 8 C-3 7.34 -3 6.68 -3 6 C-5.475 5.01 -5.475 5.01 -8 4 C-8 2.68 -8 1.36 -8 0 C-5.13822943 -1.43088528 -3.06624227 -0.59991697 0 0 Z " fill="#338684" transform="translate(623,280)"/>
<path d="M0 0 C2.31 0 4.62 0 7 0 C7 0.66 7 1.32 7 2 C5.68 2 4.36 2 3 2 C3 5.63 3 9.26 3 13 C2.01 13 1.02 13 0 13 C0 8.71 0 4.42 0 0 Z " fill="#596370" transform="translate(194,29)"/>
<path d="M0 0 C1.67542976 0.28604898 3.34385343 0.61781233 5 1 C5 2.98 5 4.96 5 7 C3.34385343 7.38218767 1.67542976 7.71395102 0 8 C-1 7 -1 7 -1.125 4 C-1 1 -1 1 0 0 Z " fill="#67647F" transform="translate(199,409)"/>
<path d="M0 0 C1.67542976 0.28604898 3.34385343 0.61781233 5 1 C5 2.98 5 4.96 5 7 C3.34385343 7.38218767 1.67542976 7.71395102 0 8 C-1 7 -1 7 -1.125 4 C-1 1 -1 1 0 0 Z " fill="#67647F" transform="translate(59,409)"/>
<path d="M0 0 C1.32 0.66 2.64 1.32 4 2 C4 3.65 4 5.3 4 7 C2.02 7.99 2.02 7.99 0 9 C-2 7 -2 7 -2.25 4.5 C-2 2 -2 2 0 0 Z " fill="#CFDAE5" transform="translate(104,139)"/>
<path d="M0 0 C1.485 0.99 1.485 0.99 3 2 C3.66 2 4.32 2 5 2 C5 4.64 5 7.28 5 10 C3.35 10 1.7 10 0 10 C-1.125 2.25 -1.125 2.25 0 0 Z " fill="#8A97AD" transform="translate(191,407)"/>
<path d="M0 0 C0.66 0.33 1.32 0.66 2 1 C2 1.66 2 2.32 2 3 C0.49802644 4.24076077 -1.00612315 5.47921817 -2.53125 6.69140625 C-4.28660135 8.25534961 -5.18614864 9.80260134 -6 12 C-6.99 12 -7.98 12 -9 12 C-7.72210402 6.03648545 -4.66283606 3.51582826 0 0 Z " fill="#81EAC0" transform="translate(541,258)"/>
<path d="M0 0 C1.32 0.66 2.64 1.32 4 2 C4 3.65 4 5.3 4 7 C2.34385343 7.38218767 0.67542976 7.71395102 -1 8 C-2 7 -2 7 -2.1875 4.5625 C-2 2 -2 2 0 0 Z " fill="#DDE9F0" transform="translate(115,139)"/>
<path d="M0 0 C0.66 0.99 1.32 1.98 2 3 C4.99705917 7.0692549 4.99705917 7.0692549 9 10 C9 10.99 9 11.98 9 13 C3.97166693 11.56333341 1.83341092 9.25011637 -1 5 C-0.8125 2.125 -0.8125 2.125 0 0 Z " fill="#80E9C0" transform="translate(534,371)"/>
<path d="M0 0 C3.81523177 1.99845474 6.04087831 4.57395811 7.375 8.6875 C7.49875 9.5228125 7.49875 9.5228125 7.625 10.375 C6.635 10.375 5.645 10.375 4.625 10.375 C3.2709068 8.38899663 1.94042376 6.38682457 0.625 4.375 C-1.9841387 2.05222584 -1.9841387 2.05222584 -4.375 0.375 C-2.375 -0.625 -2.375 -0.625 0 0 Z " fill="#80E9C0" transform="translate(746.375,259.625)"/>
<path d="M0 0 C1.32 0.66 2.64 1.32 4 2 C3.67 3.32 3.34 4.64 3 6 C0.36 6 -2.28 6 -5 6 C-3.63016497 2.83884224 -3.0109362 2.0072908 0 0 Z " fill="#8696A9" transform="translate(188,29)"/>
<path d="M0 0 C0 0.99 0 1.98 0 3 C-1.98 3 -3.96 3 -6 3 C-5.67 3.66 -5.34 4.32 -5 5 C-3.35 5 -1.7 5 0 5 C-0.33 5.66 -0.66 6.32 -1 7 C-2.66611905 7.042721 -4.33382885 7.04063832 -6 7 C-7 6 -7 6 -7.0625 2.9375 C-7.041875 1.968125 -7.02125 0.99875 -7 0 C-4.3333581 -1.33332095 -2.83319697 -0.67102033 0 0 Z " fill="#7B8092" transform="translate(77,410)"/>
<path d="M0 0 C1.65 0 3.3 0 5 0 C5 2.64 5 5.28 5 8 C3.02 8 1.04 8 -1 8 C-1 6.68 -1 5.36 -1 4 C0.65 3.67 2.3 3.34 4 3 C4 2.34 4 1.68 4 1 C2.35 1.33 0.7 1.66 -1 2 C-0.67 1.34 -0.34 0.68 0 0 Z " fill="#788094" transform="translate(160,409)"/>
<path d="M0 0 C0.33 0.99 0.66 1.98 1 3 C-1.89380576 7.17048478 -3.98990293 9.56854369 -9 11 C-9.33 10.01 -9.66 9.02 -10 8 C-8.9171875 7.4121875 -8.9171875 7.4121875 -7.8125 6.8125 C-4.772674 4.85350102 -2.47872273 2.62036403 0 0 Z " fill="#7FE9C0" transform="translate(752,373)"/>
<path d="M0 0 C2.64 0.33 5.28 0.66 8 1 C8 2.32 8 3.64 8 5 C5.03 4.67 2.06 4.34 -1 4 C-0.67 2.68 -0.34 1.36 0 0 Z " fill="#4B5C70" transform="translate(147,31)"/>
<path d="M0 0 C0.66 0.33 1.32 0.66 2 1 C2 1.66 2 2.32 2 3 C0.5390625 4.4375 0.5390625 4.4375 -1.375 6 C-3.34164804 7.61864036 -5.19674196 9.19674196 -7 11 C-7.66 11 -8.32 11 -9 11 C-7.59928507 5.70841026 -4.14512755 3.22521956 0 0 Z " fill="#9FCBFD" transform="translate(22,11)"/>
<path d="M0 0 C1.67542976 0.28604898 3.34385343 0.61781233 5 1 C5.33 1.99 5.66 2.98 6 4 C4.02 4 2.04 4 0 4 C0.33 4.66 0.66 5.32 1 6 C2.65 6 4.3 6 6 6 C5.67 6.66 5.34 7.32 5 8 C3.33388095 8.042721 1.66617115 8.04063832 0 8 C-1 7 -1 7 -1.125 4 C-1 1 -1 1 0 0 Z " fill="#757F94" transform="translate(253,409)"/>
<path d="M0 0 C1.99954746 -0.04254356 4.00041636 -0.04080783 6 0 C7 1 7 1 7.0625 4.5625 C7.041875 5.696875 7.02125 6.83125 7 8 C6.34 8 5.68 8 5 8 C5 5.69 5 3.38 5 1 C4.01 1.495 4.01 1.495 3 2 C2.34227572 5.02934491 2.34227572 5.02934491 2 8 C1.34 8 0.68 8 0 8 C0 5.36 0 2.72 0 0 Z " fill="#81828E" transform="translate(94,409)"/>
<path d="M0 0 C1.65 0 3.3 0 5 0 C5 2.31 5 4.62 5 7 C3.35 6.67 1.7 6.34 0 6 C0 4.02 0 2.04 0 0 Z " fill="#E0EAF4" transform="translate(142,140)"/>
<path d="M0 0 C1.98 0 3.96 0 6 0 C6 0.66 6 1.32 6 2 C5.01 2.33 4.02 2.66 3 3 C2.67 6.3 2.34 9.6 2 13 C1.34 13 0.68 13 0 13 C0 8.71 0 4.42 0 0 Z " fill="#2F3C66" transform="translate(106,29)"/>
<path d="M0 0 C1.65 0 3.3 0 5 0 C5.33 0.99 5.66 1.98 6 3 C1.545 4.485 1.545 4.485 -3 6 C-3.33 4.68 -3.66 3.36 -4 2 C-3.34 1.67 -2.68 1.34 -2 1 C-1.34 1.33 -0.68 1.66 0 2 C0 1.34 0 0.68 0 0 Z " fill="#D2DDE8" transform="translate(59,31)"/>
<path d="M0 0 C2.64 0 5.28 0 8 0 C8 0.33 8 0.66 8 1 C6.02 1 4.04 1 2 1 C2 2.32 2 3.64 2 5 C3.65 5 5.3 5 7 5 C7 5.33 7 5.66 7 6 C5.35 6 3.7 6 2 6 C2 7.65 2 9.3 2 11 C1.34 11 0.68 11 0 11 C0 7.37 0 3.74 0 0 Z " fill="#727583" transform="translate(40,406)"/>
<path d="M0 0 C1.32 0 2.64 0 4 0 C4 2.31 4 4.62 4 7 C2.35 6.67 0.7 6.34 -1 6 C-1.042721 4.33388095 -1.04063832 2.66617115 -1 1 C-0.67 0.67 -0.34 0.34 0 0 Z " fill="#DFFBF2" transform="translate(661,281)"/>
<path d="M0 0 C2.475 0.495 2.475 0.495 5 1 C5 2.65 5 4.3 5 6 C3.35 6.33 1.7 6.66 0 7 C0 4.69 0 2.38 0 0 Z " fill="#E2FCF2" transform="translate(606,281)"/>
<path d="M0 0 C0 0.99 0 1.98 0 3 C-4.95 4.485 -4.95 4.485 -10 6 C-10 5.01 -10 4.02 -10 3 C-6.62637846 0.39749195 -4.23092172 -0.36265043 0 0 Z " fill="#CCDFEE" transform="translate(101,31)"/>
<path d="M0 0 C1.65 0 3.3 0 5 0 C5.33 0.99 5.66 1.98 6 3 C1.545 4.485 1.545 4.485 -3 6 C-3.33 4.68 -3.66 3.36 -4 2 C-3.34 1.67 -2.68 1.34 -2 1 C-1.34 1.33 -0.68 1.66 0 2 C0 1.34 0 0.68 0 0 Z " fill="#D2DCE6" transform="translate(159,31)"/>
<path d="M0 0 C0.66 0 1.32 0 2 0 C2 4.95 2 9.9 2 15 C1.01 14.34 0.02 13.68 -1 13 C-1.2982655 8.45145106 -1.10962199 4.43848796 0 0 Z " fill="#418283" transform="translate(665,275)"/>
<path d="M0 0 C1.8125 1.375 1.8125 1.375 3 3 C3 3.66 3 4.32 3 5 C2.34 5 1.68 5 1 5 C0.67 4.34 0.34 3.68 0 3 C-1.65 3 -3.3 3 -5 3 C-5.33 4.32 -5.66 5.64 -6 7 C-6.66 6.67 -7.32 6.34 -8 6 C-7.625 3.5625 -7.625 3.5625 -7 1 C-4.45132831 -0.27433584 -2.82594567 -0.27570202 0 0 Z " fill="#418C84" transform="translate(561,275)"/>
<path d="M0 0 C2.31 0 4.62 0 7 0 C7 1.65 7 3.3 7 5 C4.6875 6.125 4.6875 6.125 2 7 C1.01 6.34 0.02 5.68 -1 5 C-0.195625 4.87625 0.60875 4.7525 1.4375 4.625 C2.283125 4.41875 3.12875 4.2125 4 4 C4.33 3.34 4.66 2.68 5 2 C3.35 2 1.7 2 0 2 C0 1.34 0 0.68 0 0 Z " fill="#4D5D72" transform="translate(47,142)"/>
<path d="M0 0 C1.99954746 -0.04254356 4.00041636 -0.04080783 6 0 C7 1 7 1 7.09765625 3.28515625 C7.08605469 4.20167969 7.07445312 5.11820313 7.0625 6.0625 C7.05347656 6.98160156 7.04445312 7.90070312 7.03515625 8.84765625 C7.02355469 9.55792969 7.01195312 10.26820312 7 11 C6.34 10.67 5.68 10.34 5 10 C5 7.69 5 5.38 5 3 C3.35 2.67 1.7 2.34 0 2 C0 2.66 0 3.32 0 4 C-0.66 4 -1.32 4 -2 4 C-1.34 2.68 -0.68 1.36 0 0 Z " fill="#323A4B" transform="translate(159,29)"/>
<path d="M0 0 C1.99954746 -0.04254356 4.00041636 -0.04080783 6 0 C7 1 7 1 7.09765625 3.28515625 C7.08605469 4.20167969 7.07445313 5.11820313 7.0625 6.0625 C7.05347656 6.98160156 7.04445313 7.90070312 7.03515625 8.84765625 C7.02355469 9.55792969 7.01195313 10.26820312 7 11 C6.34 10.67 5.68 10.34 5 10 C5 7.69 5 5.38 5 3 C3.35 2.67 1.7 2.34 0 2 C0 2.66 0 3.32 0 4 C-0.66 4 -1.32 4 -2 4 C-1.34 2.68 -0.68 1.36 0 0 Z " fill="#323A4B" transform="translate(59,29)"/>
<path d="M0 0 C1.98 0 3.96 0 6 0 C6 0.66 6 1.32 6 2 C4.68 2 3.36 2 2 2 C2 4.97 2 7.94 2 11 C1.34 11 0.68 11 0 11 C0 7.37 0 3.74 0 0 Z " fill="#4B8D90" transform="translate(652,279)"/>
<path d="M0 0 C1.32 0 2.64 0 4 0 C4 0.66 4 1.32 4 2 C2.68 2 1.36 2 0 2 C0.26656572 4.93443402 0.26656572 4.93443402 1 8 C1.99 8.66 2.98 9.32 4 10 C2.68 10.33 1.36 10.66 0 11 C-2.30163882 7.54754176 -2.34490322 6.05261287 -2 2 C-1.34 1.34 -0.68 0.68 0 0 Z " fill="#5F5968" transform="translate(142,138)"/>
<path d="M0 0 C1.98 0 3.96 0 6 0 C6 0.66 6 1.32 6 2 C4.68 2 3.36 2 2 2 C2 4.97 2 7.94 2 11 C1.34 11 0.68 11 0 11 C0 7.37 0 3.74 0 0 Z " fill="#58546E" transform="translate(134,138)"/>
<path d="M0 0 C0 3.63 0 7.26 0 11 C-0.99 10.34 -1.98 9.68 -3 9 C-3.40843923 6.28796348 -3.13336867 3.7562858 -3 1 C-1 0 -1 0 0 0 Z " fill="#BEF2F5" transform="translate(588,279)"/>
<path d="M0 0 C1.65 0 3.3 0 5 0 C5.33 1.65 5.66 3.3 6 5 C3.69 4.34 1.38 3.68 -1 3 C-0.67 2.01 -0.34 1.02 0 0 Z " fill="#D5F4EE" transform="translate(556,277)"/>
<path d="M0 0 C0.66 0 1.32 0 2 0 C1.71640113 1.4391134 1.42278601 2.87625518 1.125 4.3125 C0.88136719 5.51326172 0.88136719 5.51326172 0.6328125 6.73828125 C0 9 0 9 -2 12 C-3.12377697 8.69564916 -2.89554742 6.9493138 -1.5625 3.75 C-1.27503906 3.04359375 -0.98757812 2.3371875 -0.69140625 1.609375 C-0.46324219 1.07828125 -0.23507813 0.5471875 0 0 Z " fill="#4D597B" transform="translate(77,29)"/>
<path d="M0 0 C0.66 0 1.32 0 2 0 C2 5.61 2 11.22 2 17 C1.67 17 1.34 17 1 17 C0.93941406 16.37351562 0.87882813 15.74703125 0.81640625 15.1015625 C0.73261719 14.28429688 0.64882812 13.46703125 0.5625 12.625 C0.48128906 11.81289063 0.40007812 11.00078125 0.31640625 10.1640625 C0.10909886 7.95727195 0.10909886 7.95727195 -1 6 C-0.71887936 3.99199544 -0.38932033 1.98985949 0 0 Z " fill="#393250" transform="translate(177,25)"/>
<path d="M0 0 C2.64 0 5.28 0 8 0 C8 0.66 8 1.32 8 2 C6.824375 2.37125 6.824375 2.37125 5.625 2.75 C2.67682892 4.15389099 2.0975223 5.00675737 1 8 C0.67 5.36 0.34 2.72 0 0 Z " fill="#DBD5D7" transform="translate(121,140)"/>
<path d="M0 0 C0.66 0 1.32 0 2 0 C2 0.99 2 1.98 2 3 C2.99 3.33 3.98 3.66 5 4 C4.01 4.33 3.02 4.66 2 5 C2 6.32 2 7.64 2 9 C2.99 9.66 3.98 10.32 5 11 C3.35 11 1.7 11 0 11 C0 7.37 0 3.74 0 0 Z " fill="#636C8D" transform="translate(219,406)"/>
<path d="M0 0 C1.99954746 -0.04254356 4.00041636 -0.04080783 6 0 C7 1 7 1 7.0625 4.5625 C7.041875 5.696875 7.02125 6.83125 7 8 C5 5 5 5 5 2 C3.02 2.33 1.04 2.66 -1 3 C-0.67 2.01 -0.34 1.02 0 0 Z " fill="#4A4C5F" transform="translate(124,138)"/>
<path d="M0 0 C2.32590854 3.63423209 2.16265833 6.77088331 2 11 C1.01 10.67 0.02 10.34 -1 10 C-2.25 3.375 -2.25 3.375 0 0 Z " fill="#737E98" transform="translate(67,406)"/>
<path d="M0 0 C0.99 1.485 0.99 1.485 2 3 C5.465 2.505 5.465 2.505 9 2 C8.34 3.32 7.68 4.64 7 6 C4.69 5.67 2.38 5.34 0 5 C0 3.35 0 1.7 0 0 Z " fill="#374867" transform="translate(183,36)"/>
<path d="M0 0 C0.99 0.495 0.99 0.495 2 1 C2.33 1.99 2.66 2.98 3 4 C3.99 2.68 4.98 1.36 6 0 C5.125 5.75 5.125 5.75 4 8 C3.34 8 2.68 8 2 8 C1.34 5.36 0.68 2.72 0 0 Z " fill="#71738D" transform="translate(151,409)"/>
<path d="M0 0 C2.64 0 5.28 0 8 0 C7.67 0.99 7.34 1.98 7 3 C5 3 3 3 1 3 C0.67 2.01 0.34 1.02 0 0 Z " fill="#CCDDEF" transform="translate(85,144)"/>
<path d="M0 0 C1.65 0 3.3 0 5 0 C4.67 1.32 4.34 2.64 4 4 C2.35 4 0.7 4 -1 4 C-0.67 2.68 -0.34 1.36 0 0 Z " fill="#CAD2DA" transform="translate(160,36)"/>
<path d="M0 0 C1.65 0 3.3 0 5 0 C4.67 1.32 4.34 2.64 4 4 C2.35 4 0.7 4 -1 4 C-0.67 2.68 -0.34 1.36 0 0 Z " fill="#CAD2DA" transform="translate(60,36)"/>
<path d="M0 0 C0.99 0.33 1.98 0.66 3 1 C3 2.65 3 4.3 3 6 C1.68 5.67 0.36 5.34 -1 5 C-0.67 3.35 -0.34 1.7 0 0 Z " fill="#CBDDE8" transform="translate(237,410)"/>
<path d="M0 0 C1.32 0.33 2.64 0.66 4 1 C3.67 2.65 3.34 4.3 3 6 C2.01 5.67 1.02 5.34 0 5 C0 3.35 0 1.7 0 0 Z " fill="#DDE0DC" transform="translate(51,410)"/>
<path d="M0 0 C0.33 0.99 0.66 1.98 1 3 C1.66 3.33 2.32 3.66 3 4 C2.34 4 1.68 4 1 4 C1.144375 5.27875 1.28875 6.5575 1.4375 7.875 C1.51871094 8.59429687 1.59992187 9.31359375 1.68359375 10.0546875 C1.91292961 12.07404316 1.91292961 12.07404316 3 14 C2.01 14 1.02 14 0 14 C0 10.7 0 7.4 0 4 C-0.66 3.67 -1.32 3.34 -2 3 C-1.34 3 -0.68 3 0 3 C0 2.01 0 1.02 0 0 Z " fill="#1B7A7E" transform="translate(584,276)"/>
<path d="M0 0 C0.99 0.33 1.98 0.66 3 1 C2.67 2.65 2.34 4.3 2 6 C1.01 5.67 0.02 5.34 -1 5 C-0.67 3.35 -0.34 1.7 0 0 Z " fill="#DFE1DA" transform="translate(246,410)"/>
<path d="M0 0 C0.99 0.33 1.98 0.66 3 1 C2.67 2.65 2.34 4.3 2 6 C1.01 5.67 0.02 5.34 -1 5 C-0.67 3.35 -0.34 1.7 0 0 Z " fill="#DFE1DA" transform="translate(176,410)"/>
<path d="M0 0 C0.99 0.33 1.98 0.66 3 1 C2.67 2.65 2.34 4.3 2 6 C1.01 5.67 0.02 5.34 -1 5 C-0.67 3.35 -0.34 1.7 0 0 Z " fill="#DFE1DA" transform="translate(141,410)"/>
<path d="M0 0 C0.99 0.33 1.98 0.66 3 1 C2.67 2.65 2.34 4.3 2 6 C1.01 5.67 0.02 5.34 -1 5 C-0.67 3.35 -0.34 1.7 0 0 Z " fill="#DAE8EA" transform="translate(200,410)"/>
<path d="M0 0 C0.99 0.33 1.98 0.66 3 1 C2.67 2.65 2.34 4.3 2 6 C1.01 5.67 0.02 5.34 -1 5 C-0.67 3.35 -0.34 1.7 0 0 Z " fill="#DAE8EA" transform="translate(60,410)"/>
<path d="M0 0 C-0.33 1.32 -0.66 2.64 -1 4 C-2.65 4 -4.3 4 -6 4 C-6 3.01 -6 2.02 -6 1 C-3 0 -3 0 0 0 Z " fill="#CFE0EA" transform="translate(101,36)"/>
<path d="M0 0 C2.64 0.33 5.28 0.66 8 1 C8 2.65 8 4.3 8 6 C7.67 5.01 7.34 4.02 7 3 C6.030625 2.87625 5.06125 2.7525 4.0625 2.625 C3.051875 2.41875 2.04125 2.2125 1 2 C0.67 1.34 0.34 0.68 0 0 Z " fill="#33847B" transform="translate(555,281)"/>
<path d="M0 0 C1.32 0.66 2.64 1.32 4 2 C4 2.66 4 3.32 4 4 C2.02 4 0.04 4 -2 4 C-1.34 2.68 -0.68 1.36 0 0 Z " fill="#C0CBD7" transform="translate(87,139)"/>
<path d="M0 0 C1.98 0 3.96 0 6 0 C5.67 1.32 5.34 2.64 5 4 C5 3.34 5 2.68 5 2 C3.02 2.33 1.04 2.66 -1 3 C-0.67 2.01 -0.34 1.02 0 0 Z " fill="#52958B" transform="translate(642,279)"/>
<path d="M0 0 C1.65 0 3.3 0 5 0 C5 0.99 5 1.98 5 3 C3.02 3 1.04 3 -1 3 C-0.67 2.01 -0.34 1.02 0 0 Z " fill="#C5DCF3" transform="translate(147,31)"/>
</svg>
